<svg width="1080" height="1080" viewBox="0 0 1080 1080" fill="none" xmlns="http://www.w3.org/2000/svg">
<g clip-path="url(#clip0_11_13)">
<rect width="1080" height="1080" fill="url(#paint0_linear_11_13)"/>
<rect width="1080" height="1083" fill="url(#paint1_linear_11_13)"/>
<rect x="966.871" y="24.9549" width="111.581" height="513.273" transform="rotate(31.1201 966.871 24.9549)" fill="#E569AF"/>
<path d="M843.961 478.622C922.421 348.687 1044.84 145.884 1044.84 145.884C1044.84 145.884 1242.33 237.957 1127.47 428.207C1027.99 592.984 841.558 482.602 843.961 478.622Z" fill="#ECA2F0"/>
<rect x="814.552" y="93.7482" width="35.334" height="297.549" transform="rotate(31.1201 814.552 93.7482)" fill="#419FC4"/>
<circle cx="779.532" cy="187.738" r="44.6324" transform="rotate(31.1201 779.532 187.738)" fill="#1F2C61"/>
<rect x="928.356" y="581.709" width="59.5099" height="29.7549" transform="rotate(31.1201 928.356 581.709)" fill="#E569AF"/>
<path d="M513.94 991.131C508.443 985.985 505.016 979.791 503.658 972.55C502.359 965.335 503.179 958.389 506.118 951.711C508.645 945.971 512.439 941.243 517.501 937.527C522.563 933.812 528.215 931.615 534.458 930.936C540.759 930.283 546.75 931.207 552.432 933.708C558.114 936.209 562.813 939.991 566.528 945.053C570.302 950.141 572.529 955.806 573.207 962.048C573.886 968.29 572.962 974.282 570.435 980.022C567.496 986.7 562.868 991.97 556.553 995.833C550.296 999.722 543.413 1001.38 535.906 1000.8L533.392 1006.51L511.426 996.842L513.94 991.131ZM533.738 996.909C540.845 998.079 547.478 996.909 553.639 993.397C559.859 989.911 564.373 984.976 567.184 978.591C570.691 970.625 570.841 962.579 567.634 954.455C564.453 946.272 558.909 940.44 551.001 936.959C543.093 933.479 535.048 933.329 526.865 936.509C518.708 939.632 512.876 945.176 509.369 953.142C506.559 959.527 505.897 966.193 507.384 973.141C508.955 980.056 512.585 985.71 518.274 990.102L516.108 995.022L531.572 1001.83L533.738 996.909ZM526.536 972.761C525.327 970.9 524.654 968.856 524.516 966.627C524.378 964.399 524.76 962.26 525.663 960.21C527.184 956.754 529.716 954.337 533.259 952.96C536.887 951.55 540.429 951.605 543.885 953.126C547.341 954.648 549.744 957.209 551.096 960.811C552.532 964.38 552.489 967.892 550.968 971.348C549.034 975.741 545.71 978.369 540.995 979.23L543.586 973.344L529.089 966.962L526.536 972.761ZM546.307 970.975C547.01 971.284 547.568 970.971 547.98 970.033C549.141 967.397 549.167 964.717 548.059 961.991C547.035 959.233 545.206 957.274 542.57 956.114C539.934 954.954 537.224 954.914 534.44 955.997C531.74 957.046 529.81 958.889 528.65 961.525C528.367 962.169 528.245 962.605 528.284 962.832C528.35 963.001 528.559 963.162 528.91 963.317L546.307 970.975ZM612.021 1009.45C608.823 1016.71 604.389 1021.54 598.718 1023.94C593.132 1026.3 587.117 1026.07 580.673 1023.23C574.816 1020.65 570.736 1016.34 568.433 1010.29C566.215 1004.21 566.46 998.097 569.167 991.946L580.654 965.85L601.039 974.823C601.331 974.952 601.401 975.192 601.246 975.544L589.836 1001.46C589.707 1001.76 589.76 1001.95 589.994 1002.06C590.287 1002.19 590.498 1002.1 590.627 1001.81L602.037 975.892C602.191 975.54 602.474 975.455 602.884 975.635L623.005 984.492L612.021 1009.45ZM608.77 1008.01L618.323 986.312L603.298 979.699L593.087 1002.89C592.082 1005.18 590.612 1005.9 588.679 1005.05C586.805 1004.22 586.371 1002.67 587.376 1000.38L597.587 977.185L582.474 970.532L572.418 993.377C570.123 998.59 569.905 1003.77 571.762 1008.93C573.678 1014.11 577.125 1017.79 582.104 1019.98C587.611 1022.41 592.735 1022.6 597.478 1020.56C602.247 1018.46 606.011 1014.28 608.77 1008.01ZM650.971 1044.63C646.303 1045.86 642.28 1046.51 638.901 1046.56C635.522 1046.61 632.368 1045.99 629.44 1044.7C622.645 1041.71 617.919 1036.8 615.263 1029.96C612.633 1023.07 612.826 1016.2 615.843 1009.34C618.834 1002.55 623.703 997.841 630.452 995.218C637.26 992.62 644.149 992.855 651.119 995.924C657.797 998.863 662.444 1003.64 665.06 1010.24C667.677 1016.85 667.502 1023.52 664.537 1030.25C664.46 1030.43 663.453 1032.4 661.517 1036.16L647.722 1030.09C647.254 1029.88 646.981 1029.87 646.903 1030.04C646.878 1030.1 646.917 1030.33 647.023 1030.73L650.971 1044.63ZM659.873 1031.56C660.712 1029.97 661.183 1029.06 661.286 1028.82C663.839 1023.02 663.958 1017.27 661.644 1011.57C659.414 1005.83 655.429 1001.7 649.688 999.175C643.655 996.519 637.686 996.339 631.78 998.634C625.901 1000.87 621.672 1004.92 619.094 1010.78C616.489 1016.69 616.322 1022.63 618.592 1028.6C620.92 1034.59 625.013 1038.87 630.871 1041.45C635.44 1043.46 640.652 1043.69 646.508 1042.14L642.461 1027.98C640.385 1028.89 638.614 1029.02 637.15 1028.37C635.276 1027.55 634.101 1026.09 633.625 1023.99C633.234 1021.86 633.619 1019.48 634.779 1016.84C635.914 1014.26 637.402 1012.47 639.244 1011.46C641.17 1010.42 643.071 1010.32 644.945 1011.14C647.757 1012.38 648.769 1014.61 647.981 1017.83L640.249 1014.42C639.187 1015.57 638.398 1016.72 637.883 1017.89C637.393 1019.01 637.108 1020.21 637.028 1021.5L659.873 1031.56ZM639.294 1025.65L637.889 1025.03C637.479 1024.85 637.261 1024.79 637.235 1024.85C637.209 1024.9 637.317 1025.06 637.558 1025.3C637.825 1025.49 638.076 1025.63 638.31 1025.74C638.486 1025.82 638.733 1025.89 639.052 1025.96C639.396 1025.97 639.581 1025.95 639.607 1025.89C639.633 1025.83 639.529 1025.75 639.294 1025.65ZM698.607 1043.57C696.147 1042.49 694.462 1042.03 693.553 1042.19C692.669 1042.29 691.885 1042.96 691.201 1044.19C683.551 1058.24 672.257 1061.97 657.32 1055.4L651.96 1053.04L661.861 1030.55C664.673 1031.78 666.726 1032.44 668.019 1032.52C669.313 1032.6 670.392 1031.82 671.257 1030.17C673.502 1025.71 675.343 1022.63 676.78 1020.96C678.301 1019.25 680.31 1017.86 682.808 1016.8C685.391 1015.69 688.19 1015.21 691.205 1015.35C694.221 1015.49 697.311 1016.26 700.474 1017.65L708.469 1021.17L698.607 1043.57ZM696.787 1038.89L703.787 1022.99L699.13 1020.94C696.293 1019.76 693.61 1019.1 691.082 1018.97C688.612 1018.86 686.297 1019.28 684.136 1020.21C682.002 1021.09 680.339 1022.25 679.148 1023.68C678.016 1025.14 676.444 1027.84 674.43 1031.78C673.146 1034.22 671.744 1035.73 670.226 1036.33C668.733 1036.86 666.552 1036.49 663.681 1035.23L656.642 1051.22L658.751 1052.15C671.696 1057.85 681.468 1054.63 688.066 1042.5C689.332 1040.26 690.539 1038.87 691.687 1038.32C692.861 1037.72 694.561 1037.91 696.787 1038.89ZM714.487 1082.14C705.057 1077.98 698.864 1072.67 695.911 1066.2C693.041 1059.69 693.476 1052.19 697.214 1043.69L713.536 1006.62L735.15 1016.13L727.995 1032.39L734.761 1035.36L724.899 1057.77L718.66 1055.02C718.62 1056.54 720.504 1058.14 724.311 1059.82L714.487 1082.14ZM712.667 1077.45L719.629 1061.64C716.935 1060.45 715.347 1059.05 714.867 1057.44C714.413 1055.78 714.895 1053.33 716.313 1050.11L723.079 1053.09L730.079 1037.18L723.313 1034.21L730.468 1017.95L715.356 1011.3L700.465 1045.13C697.294 1052.33 696.778 1058.75 698.916 1064.37C701.113 1070.02 705.697 1074.39 712.667 1077.45ZM755.923 1098.8L739.844 1091.72C732.756 1088.6 728.069 1084.48 725.783 1079.35C723.555 1074.24 723.873 1068.44 726.735 1061.93L736.21 1040.41C738.995 1034.08 742.935 1029.98 748.029 1028.09C753.208 1026.18 759.078 1026.66 765.638 1029.55L783.035 1037.21L773.173 1059.61L772.558 1059.34C772.265 1059.21 771.989 1059.44 771.732 1060.03L764.925 1075.49C764.744 1075.9 764.83 1076.18 765.181 1076.34L765.708 1076.57L755.923 1098.8ZM754.103 1094.12L761.026 1078.39L750.043 1073.56C748.052 1072.68 746.84 1071.94 746.409 1071.33C746.063 1070.69 746.134 1069.81 746.624 1068.7C747.088 1067.64 747.703 1067.04 748.47 1066.89C749.236 1066.73 750.351 1066.98 751.816 1067.62L762.447 1072.3L767.862 1060L758.9 1056.06C757.26 1055.34 756.136 1054.63 755.529 1053.95C755.007 1053.23 754.991 1052.31 755.48 1051.2C756.28 1049.38 758.085 1049.09 760.897 1050.33L771.353 1054.93L778.353 1039.03L764.207 1032.8C758.701 1030.38 753.78 1029.96 749.445 1031.55C745.11 1033.14 741.782 1036.57 739.461 1041.84L729.986 1063.36C727.588 1068.81 727.355 1073.71 729.288 1078.06C731.246 1082.34 735.242 1085.82 741.275 1088.47L754.103 1094.12ZM781.937 1109.62L793.114 1084.23C793.243 1083.94 793.161 1083.73 792.868 1083.6C792.634 1083.49 792.452 1083.59 792.323 1083.88L781.146 1109.27C780.991 1109.63 780.767 1109.74 780.474 1109.61L760.09 1100.64L771.345 1075.07C774.052 1068.92 778.384 1064.63 784.341 1062.22C790.382 1059.78 796.331 1059.84 802.189 1062.42C808.632 1065.26 812.855 1069.56 814.858 1075.34C816.945 1081.08 816.39 1087.59 813.192 1094.85L802.44 1119.28L782.32 1110.42C781.909 1110.24 781.782 1109.97 781.937 1109.62ZM800.621 1114.6L809.941 1093.42C812.7 1087.15 813.23 1081.58 811.529 1076.71C809.855 1071.77 806.264 1068.1 800.758 1065.67C795.779 1063.48 790.733 1063.43 785.62 1065.51C780.565 1067.62 776.89 1071.28 774.596 1076.5L764.772 1098.82L779.885 1105.47L789.863 1082.8C790.869 1080.51 792.309 1079.78 794.183 1080.61C796.116 1081.46 796.58 1083.03 795.574 1085.31L785.596 1107.98L800.621 1114.6ZM856.831 1132.73C853.325 1140.7 848.208 1146.21 841.48 1149.26C834.811 1152.34 827.786 1152.25 820.405 1149C816.773 1147.4 813.22 1145.07 809.746 1142L818.177 1122.85C818.435 1122.26 818.394 1121.72 818.054 1121.22C815.573 1117.96 814.14 1114.15 813.754 1109.78C813.368 1105.42 814.116 1101.1 815.998 1096.82C818.886 1090.26 823.692 1085.7 830.415 1083.13C837.138 1080.57 843.897 1080.78 850.692 1083.77C858.072 1087.02 862.816 1091.73 864.924 1097.9C867.032 1104.08 866.268 1111.29 862.633 1119.55L856.831 1132.73ZM853.581 1131.3L859.382 1118.12C862.553 1110.91 863.249 1104.65 861.469 1099.32C859.715 1093.93 855.645 1089.83 849.26 1087.02C843.403 1084.44 837.547 1084.24 831.694 1086.42C825.898 1088.63 821.75 1092.57 819.249 1098.25C816.877 1103.64 816.561 1108.89 818.301 1113.99C820.1 1119.11 823.431 1122.75 828.292 1124.89C830.401 1125.82 832.678 1126.36 835.121 1126.53L841.194 1112.74C839.992 1112.77 838.893 1112.56 837.897 1112.12C836.374 1111.45 835.304 1110.39 834.688 1108.93C834.131 1107.49 834.2 1105.99 834.896 1104.4C835.567 1102.88 836.661 1101.83 838.18 1101.23C839.783 1100.61 841.316 1100.62 842.781 1101.27C846.178 1102.76 846.948 1105.62 845.092 1109.84L838.44 1124.95C836.97 1128.29 835.074 1130.53 832.752 1131.68C830.488 1132.85 828.097 1132.88 825.578 1131.77C823.586 1130.89 821.752 1129.42 820.074 1127.35L814.041 1141.06C816.557 1143.29 819.192 1145.01 821.945 1146.22C828.095 1148.93 834.139 1148.86 840.074 1146.02C845.984 1143.23 850.486 1138.33 853.581 1131.3ZM839.201 1108.92C840.08 1109.31 840.763 1109.5 841.25 1109.51C841.822 1109.48 842.224 1109.2 842.456 1108.68C843.539 1106.22 843.26 1104.63 841.62 1103.9C840.859 1103.57 840.056 1103.56 839.213 1103.89C838.453 1104.19 837.893 1104.74 837.532 1105.57C836.888 1107.03 837.444 1108.15 839.201 1108.92ZM826.735 1128.19C827.965 1128.73 829.009 1128.98 829.866 1128.94C830.808 1128.86 830.801 1128.72 829.845 1128.51C829.032 1128.29 828.157 1127.98 827.22 1127.56C825.111 1126.63 823.324 1125.53 821.857 1124.26C821.648 1124.1 821.486 1123.99 821.368 1123.94C821.277 1123.83 821.218 1123.8 821.193 1123.86C821.167 1123.92 821.712 1124.51 822.827 1125.63C824.026 1126.72 825.329 1127.57 826.735 1128.19ZM896.959 1106.66L899.332 1107.7L879.336 1153.13L857.722 1143.61L877.717 1098.19L880.09 1099.23C880.5 1099.41 880.743 1099.41 880.821 1099.24C880.898 1099.06 880.855 1098.76 880.691 1098.34C880 1095.94 880.209 1093.48 881.317 1090.96C882.607 1088.03 884.715 1086.02 887.642 1084.93C890.594 1083.78 893.535 1083.86 896.464 1085.14C899.392 1086.43 901.431 1088.55 902.578 1091.51C903.752 1094.4 903.694 1097.31 902.405 1100.24C901.322 1102.7 899.594 1104.56 897.22 1105.83C896.856 1106.02 896.649 1106.17 896.598 1106.29C896.546 1106.4 896.667 1106.53 896.959 1106.66ZM888.651 1102.89C890.643 1103.77 892.651 1103.81 894.675 1103.03C896.784 1102.21 898.277 1100.8 899.154 1098.81C900.031 1096.82 900.046 1094.8 899.201 1092.75C898.414 1090.72 897.024 1089.27 895.033 1088.4C893.041 1087.52 891.004 1087.46 888.92 1088.22C886.896 1089.01 885.445 1090.4 884.568 1092.39C883.692 1094.38 883.634 1096.42 884.395 1098.5C885.241 1100.55 886.659 1102.02 888.651 1102.89ZM877.516 1148.44L894.65 1109.52L879.537 1102.87L862.404 1141.79L877.516 1148.44ZM905.667 1164.09L916.845 1138.69C916.974 1138.4 916.892 1138.19 916.599 1138.06C916.365 1137.96 916.183 1138.05 916.054 1138.35L904.877 1163.74C904.722 1164.09 904.498 1164.2 904.205 1164.07L883.821 1155.1L895.076 1129.53C897.783 1123.38 902.115 1119.1 908.072 1116.69C914.113 1114.24 920.062 1114.31 925.92 1116.89C932.363 1119.72 936.586 1124.03 938.589 1129.8C940.676 1135.55 940.121 1142.05 936.923 1149.32L926.171 1173.74L906.05 1164.88C905.64 1164.7 905.513 1164.44 905.667 1164.09ZM924.351 1169.06L933.672 1147.88C936.431 1141.62 936.961 1136.05 935.26 1131.17C933.585 1126.24 929.995 1122.56 924.489 1120.14C919.51 1117.95 914.464 1117.89 909.351 1119.98C904.296 1122.09 900.621 1125.75 898.326 1130.96L888.503 1153.28L903.615 1159.93L913.594 1137.26C914.599 1134.98 916.039 1134.25 917.914 1135.07C919.847 1135.92 920.311 1137.49 919.305 1139.78L909.327 1162.45L924.351 1169.06ZM974.714 1187.14C970.046 1188.37 966.022 1189.01 962.644 1189.06C959.265 1189.11 956.111 1188.49 953.182 1187.2C946.387 1184.21 941.662 1179.3 939.005 1172.47C936.375 1165.58 936.568 1158.7 939.585 1151.85C942.576 1145.06 947.446 1140.35 954.195 1137.72C961.002 1135.13 967.891 1135.36 974.862 1138.43C981.539 1141.37 986.186 1146.14 988.803 1152.75C991.419 1159.35 991.245 1166.02 988.28 1172.76C988.202 1172.94 987.196 1174.91 985.259 1178.67L971.465 1172.6C970.996 1172.39 970.723 1172.37 970.646 1172.55C970.62 1172.61 970.66 1172.84 970.765 1173.23L974.714 1187.14ZM983.615 1174.06C984.454 1172.48 984.925 1171.56 985.029 1171.33C987.581 1165.53 987.7 1159.78 985.386 1154.08C983.156 1148.34 979.171 1144.21 973.431 1141.68C967.397 1139.02 961.428 1138.84 955.523 1141.14C949.643 1143.38 945.414 1147.42 942.836 1153.28C940.232 1159.2 940.065 1165.14 942.334 1171.1C944.662 1177.09 948.755 1181.37 954.613 1183.95C959.182 1185.96 964.394 1186.2 970.25 1184.65L966.203 1170.49C964.127 1171.39 962.357 1171.52 960.892 1170.88C959.018 1170.05 957.843 1168.59 957.368 1166.5C956.977 1164.37 957.361 1161.98 958.522 1159.35C959.656 1156.77 961.144 1154.98 962.986 1153.97C964.913 1152.93 966.813 1152.82 968.687 1153.65C971.499 1154.88 972.511 1157.11 971.723 1160.33L963.991 1156.93C962.929 1158.07 962.141 1159.23 961.625 1160.4C961.135 1161.51 960.85 1162.71 960.77 1164.01L983.615 1174.06ZM963.037 1168.15L961.631 1167.53C961.221 1167.35 961.003 1167.29 960.977 1167.35C960.952 1167.41 961.059 1167.56 961.301 1167.81C961.568 1167.99 961.818 1168.14 962.053 1168.24C962.228 1168.32 962.476 1168.39 962.794 1168.46C963.139 1168.48 963.324 1168.45 963.35 1168.39C963.375 1168.34 963.271 1168.26 963.037 1168.15Z" fill="white"/>
<path d="M759.94 886.131C754.443 880.985 751.016 874.791 749.658 867.55C748.359 860.335 749.179 853.389 752.118 846.711C754.645 840.971 758.439 836.243 763.501 832.527C768.563 828.812 774.215 826.615 780.458 825.936C786.759 825.283 792.75 826.207 798.432 828.708C804.114 831.209 808.813 834.991 812.528 840.053C816.302 845.141 818.529 850.806 819.207 857.048C819.886 863.29 818.962 869.282 816.435 875.022C813.496 881.7 808.868 886.97 802.553 890.833C796.296 894.722 789.413 896.378 781.906 895.8L779.392 901.511L757.426 891.842L759.94 886.131ZM779.738 891.909C786.845 893.079 793.478 891.909 799.639 888.397C805.859 884.911 810.373 879.976 813.184 873.591C816.691 865.625 816.841 857.579 813.634 849.455C810.453 841.272 804.909 835.44 797.001 831.959C789.093 828.479 781.048 828.329 772.865 831.509C764.708 834.632 758.876 840.176 755.369 848.142C752.559 854.527 751.897 861.193 753.384 868.141C754.955 875.056 758.585 880.71 764.274 885.102L762.108 890.022L777.572 896.829L779.738 891.909ZM772.536 867.761C771.327 865.9 770.654 863.856 770.516 861.627C770.378 859.399 770.76 857.26 771.663 855.21C773.184 851.754 775.716 849.337 779.259 847.96C782.887 846.55 786.429 846.605 789.885 848.126C793.341 849.648 795.744 852.209 797.096 855.811C798.532 859.38 798.489 862.892 796.968 866.348C795.034 870.741 791.71 873.369 786.995 874.23L789.586 868.344L775.089 861.962L772.536 867.761ZM792.307 865.975C793.01 866.284 793.568 865.971 793.98 865.033C795.141 862.397 795.167 859.717 794.059 856.991C793.035 854.233 791.206 852.274 788.57 851.114C785.934 849.954 783.224 849.914 780.44 850.997C777.74 852.046 775.81 853.889 774.65 856.525C774.367 857.169 774.245 857.605 774.284 857.832C774.35 858.001 774.559 858.162 774.91 858.317L792.307 865.975ZM858.021 904.446C854.823 911.709 850.389 916.54 844.718 918.939C839.132 921.305 833.117 921.069 826.673 918.233C820.816 915.655 816.736 911.341 814.433 905.293C812.215 899.212 812.46 893.097 815.167 886.946L826.654 860.85L847.039 869.823C847.331 869.952 847.401 870.192 847.246 870.544L835.836 896.464C835.707 896.757 835.76 896.955 835.994 897.058C836.287 897.187 836.498 897.105 836.627 896.812L848.037 870.892C848.191 870.54 848.474 870.455 848.884 870.635L869.005 879.492L858.021 904.446ZM854.77 903.015L864.323 881.312L849.298 874.699L839.087 897.895C838.082 900.179 836.612 900.896 834.679 900.045C832.805 899.22 832.371 897.665 833.376 895.381L843.587 872.185L828.474 865.532L818.418 888.377C816.123 893.59 815.905 898.773 817.762 903.926C819.678 909.105 823.125 912.79 828.104 914.982C833.611 917.406 838.735 917.599 843.478 915.561C848.247 913.464 852.011 909.282 854.77 903.015ZM896.971 939.632C892.303 940.864 888.28 941.505 884.901 941.556C881.522 941.607 878.368 940.988 875.44 939.699C868.645 936.708 863.919 931.796 861.263 924.963C858.633 918.071 858.826 911.198 861.843 904.345C864.834 897.55 869.703 892.841 876.452 890.218C883.26 887.62 890.149 887.855 897.119 890.924C903.797 893.863 908.444 898.636 911.06 905.242C913.677 911.848 913.502 918.519 910.537 925.255C910.46 925.431 909.453 927.4 907.517 931.163L893.722 925.091C893.254 924.884 892.981 924.869 892.903 925.045C892.878 925.103 892.917 925.331 893.023 925.727L896.971 939.632ZM905.873 926.558C906.712 924.97 907.183 924.058 907.286 923.824C909.839 918.025 909.958 912.273 907.644 906.57C905.414 900.833 901.429 896.702 895.688 894.175C889.655 891.519 883.686 891.339 877.78 893.634C871.901 895.871 867.672 899.918 865.094 905.776C862.489 911.692 862.322 917.632 864.592 923.596C866.92 929.586 871.013 933.87 876.871 936.448C881.44 938.459 886.652 938.691 892.508 937.143L888.461 922.985C886.385 923.889 884.614 924.018 883.15 923.374C881.276 922.549 880.101 921.088 879.625 918.99C879.234 916.86 879.619 914.477 880.779 911.841C881.914 909.264 883.402 907.472 885.244 906.464C887.17 905.424 889.071 905.317 890.945 906.142C893.757 907.38 894.769 909.608 893.981 912.828L886.249 909.424C885.187 910.565 884.398 911.721 883.883 912.893C883.393 914.006 883.108 915.209 883.028 916.502L905.873 926.558ZM885.294 920.647L883.889 920.028C883.479 919.847 883.261 919.786 883.235 919.845C883.209 919.904 883.317 920.056 883.558 920.302C883.825 920.489 884.076 920.635 884.31 920.738C884.486 920.815 884.733 920.889 885.052 920.959C885.396 920.971 885.581 920.948 885.607 920.889C885.633 920.831 885.529 920.75 885.294 920.647ZM944.607 938.574C942.147 937.491 940.462 937.029 939.553 937.188C938.669 937.289 937.885 937.957 937.201 939.195C929.551 953.239 918.257 956.973 903.32 950.398L897.96 948.039L907.861 925.546C910.673 926.783 912.726 927.442 914.019 927.522C915.313 927.602 916.392 926.818 917.257 925.171C919.502 920.705 921.343 917.635 922.78 915.959C924.301 914.252 926.31 912.863 928.808 911.795C931.391 910.694 934.19 910.213 937.205 910.352C940.221 910.491 943.311 911.256 946.474 912.649L954.469 916.168L944.607 938.574ZM942.787 933.892L949.787 917.988L945.13 915.938C942.293 914.759 939.61 914.103 937.082 913.969C934.612 913.861 932.297 914.275 930.136 915.212C928.002 916.09 926.339 917.246 925.148 918.68C924.016 920.14 922.444 922.839 920.43 926.778C919.146 929.219 917.744 930.735 916.226 931.325C914.733 931.857 912.552 931.491 909.681 930.228L902.642 946.219L904.751 947.147C917.696 952.845 927.468 949.63 934.066 937.5C935.332 935.26 936.539 933.868 937.687 933.325C938.861 932.723 940.561 932.912 942.787 933.892ZM960.487 977.135C951.057 972.984 944.864 967.671 941.911 961.197C939.041 954.689 939.476 947.188 943.214 938.695L959.536 901.616L981.15 911.13L973.995 927.385L980.761 930.363L970.899 952.769L964.66 950.023C964.62 951.544 966.504 953.142 970.311 954.818L960.487 977.135ZM958.667 972.453L965.629 956.638C962.935 955.452 961.347 954.054 960.867 952.444C960.413 950.776 960.895 948.331 962.313 945.109L969.079 948.087L976.079 932.183L969.313 929.205L976.468 912.95L961.356 906.298L946.465 940.126C943.294 947.331 942.778 953.746 944.916 959.373C947.113 965.025 951.697 969.385 958.667 972.453ZM1001.92 993.801L985.844 986.724C978.756 983.604 974.069 979.478 971.783 974.346C969.555 969.24 969.873 963.436 972.735 956.934L982.21 935.407C984.995 929.081 988.935 924.976 994.029 923.093C999.208 921.177 1005.08 921.663 1011.64 924.551L1029.04 932.208L1019.17 954.614L1018.56 954.343C1018.26 954.214 1017.99 954.443 1017.73 955.028L1010.92 970.493C1010.74 970.903 1010.83 971.185 1011.18 971.34L1011.71 971.572L1001.92 993.801ZM1000.1 989.119L1007.03 973.392L996.043 968.557C994.052 967.68 992.84 966.937 992.409 966.328C992.063 965.686 992.134 964.809 992.624 963.696C993.088 962.641 993.703 962.038 994.47 961.886C995.236 961.734 996.351 961.98 997.816 962.624L1008.45 967.304L1013.86 955.003L1004.9 951.058C1003.26 950.336 1002.14 949.632 1001.53 948.945C1001.01 948.226 1000.99 947.31 1001.48 946.197C1002.28 944.381 1004.09 944.092 1006.9 945.329L1017.35 949.932L1024.35 934.028L1010.21 927.802C1004.7 925.378 999.78 924.96 995.445 926.548C991.11 928.136 987.782 931.566 985.461 936.838L975.986 958.365C973.588 963.812 973.355 968.709 975.288 973.056C977.246 977.345 981.242 980.817 987.275 983.473L1000.1 989.119ZM1027.94 1004.62L1039.11 979.23C1039.24 978.937 1039.16 978.726 1038.87 978.597C1038.63 978.494 1038.45 978.589 1038.32 978.882L1027.15 1004.27C1026.99 1004.63 1026.77 1004.74 1026.47 1004.61L1006.09 995.635L1017.34 970.067C1020.05 963.916 1024.38 959.635 1030.34 957.222C1036.38 954.777 1042.33 954.843 1048.19 957.422C1054.63 960.258 1058.86 964.564 1060.86 970.341C1062.94 976.084 1062.39 982.588 1059.19 989.851L1048.44 1014.28L1028.32 1005.42C1027.91 1005.24 1027.78 1004.97 1027.94 1004.62ZM1046.62 1009.6L1055.94 988.42C1058.7 982.152 1059.23 976.582 1057.53 971.707C1055.85 966.775 1052.26 963.097 1046.76 960.673C1041.78 958.481 1036.73 958.428 1031.62 960.512C1026.57 962.623 1022.89 966.285 1020.6 971.498L1010.77 993.816L1025.88 1000.47L1035.86 977.799C1036.87 975.514 1038.31 974.785 1040.18 975.61C1042.12 976.461 1042.58 978.028 1041.57 980.313L1031.6 1002.98L1046.62 1009.6ZM1102.83 1027.73C1099.32 1035.7 1094.21 1041.21 1087.48 1044.26C1080.81 1047.34 1073.79 1047.25 1066.41 1044C1062.77 1042.4 1059.22 1040.07 1055.75 1037L1064.18 1017.85C1064.43 1017.26 1064.39 1016.72 1064.05 1016.22C1061.57 1012.96 1060.14 1009.15 1059.75 1004.78C1059.37 1000.42 1060.12 996.097 1062 991.82C1064.89 985.26 1069.69 980.697 1076.41 978.132C1083.14 975.568 1089.9 975.781 1096.69 978.772C1104.07 982.021 1108.82 986.731 1110.92 992.903C1113.03 999.076 1112.27 1006.29 1108.63 1014.55L1102.83 1027.73ZM1099.58 1026.3L1105.38 1013.12C1108.55 1005.91 1109.25 999.648 1107.47 994.319C1105.71 988.932 1101.65 984.833 1095.26 982.023C1089.4 979.444 1083.55 979.244 1077.69 981.423C1071.9 983.627 1067.75 987.57 1065.25 993.251C1062.88 998.64 1062.56 1003.89 1064.3 1008.99C1066.1 1014.11 1069.43 1017.75 1074.29 1019.89C1076.4 1020.82 1078.68 1021.36 1081.12 1021.53L1087.19 1007.74C1085.99 1007.77 1084.89 1007.56 1083.9 1007.12C1082.37 1006.45 1081.3 1005.39 1080.69 1003.93C1080.13 1002.49 1080.2 1000.99 1080.9 999.405C1081.57 997.882 1082.66 996.825 1084.18 996.235C1085.78 995.612 1087.32 995.623 1088.78 996.267C1092.18 997.763 1092.95 1000.62 1091.09 1004.84L1084.44 1019.95C1082.97 1023.29 1081.07 1025.53 1078.75 1026.68C1076.49 1027.85 1074.1 1027.88 1071.58 1026.77C1069.59 1025.89 1067.75 1024.42 1066.07 1022.35L1060.04 1036.06C1062.56 1038.29 1065.19 1040.01 1067.94 1041.22C1074.1 1043.93 1080.14 1043.86 1086.07 1041.02C1091.98 1038.23 1096.49 1033.33 1099.58 1026.3ZM1085.2 1003.92C1086.08 1004.31 1086.76 1004.5 1087.25 1004.51C1087.82 1004.48 1088.22 1004.2 1088.46 1003.68C1089.54 1001.22 1089.26 999.625 1087.62 998.903C1086.86 998.568 1086.06 998.564 1085.21 998.892C1084.45 999.187 1083.89 999.745 1083.53 1000.57C1082.89 1002.03 1083.44 1003.15 1085.2 1003.92ZM1072.73 1023.19C1073.96 1023.73 1075.01 1023.98 1075.87 1023.94C1076.81 1023.86 1076.8 1023.72 1075.85 1023.51C1075.03 1023.29 1074.16 1022.98 1073.22 1022.56C1071.11 1021.63 1069.32 1020.53 1067.86 1019.26C1067.65 1019.1 1067.49 1018.99 1067.37 1018.94C1067.28 1018.83 1067.22 1018.8 1067.19 1018.86C1067.17 1018.92 1067.71 1019.51 1068.83 1020.63C1070.03 1021.72 1071.33 1022.57 1072.73 1023.19ZM1142.96 1001.66L1145.33 1002.7L1125.34 1048.13L1103.72 1038.61L1123.72 993.185L1126.09 994.23C1126.5 994.41 1126.74 994.412 1126.82 994.237C1126.9 994.061 1126.85 993.762 1126.69 993.34C1126 990.938 1126.21 988.478 1127.32 985.959C1128.61 983.031 1130.71 981.022 1133.64 979.932C1136.59 978.785 1139.53 978.855 1142.46 980.145C1145.39 981.434 1147.43 983.555 1148.58 986.507C1149.75 989.401 1149.69 992.313 1148.4 995.242C1147.32 997.702 1145.59 999.563 1143.22 1000.83C1142.86 1001.02 1142.65 1001.17 1142.6 1001.29C1142.55 1001.4 1142.67 1001.53 1142.96 1001.66ZM1134.65 997.893C1136.64 998.77 1138.65 998.815 1140.68 998.028C1142.78 997.208 1144.28 995.802 1145.15 993.811C1146.03 991.819 1146.05 989.798 1145.2 987.748C1144.41 985.723 1143.02 984.272 1141.03 983.396C1139.04 982.519 1137 982.461 1134.92 983.222C1132.9 984.009 1131.45 985.399 1130.57 987.39C1129.69 989.382 1129.63 991.419 1130.4 993.503C1131.24 995.553 1132.66 997.017 1134.65 997.893ZM1123.52 1043.44L1140.65 1004.52L1125.54 997.867L1108.4 1036.79L1123.52 1043.44ZM1151.67 1059.09L1162.84 1033.69C1162.97 1033.4 1162.89 1033.19 1162.6 1033.06C1162.36 1032.96 1162.18 1033.05 1162.05 1033.35L1150.88 1058.74C1150.72 1059.09 1150.5 1059.2 1150.21 1059.07L1129.82 1050.1L1141.08 1024.53C1143.78 1018.38 1148.11 1014.1 1154.07 1011.69C1160.11 1009.24 1166.06 1009.31 1171.92 1011.89C1178.36 1014.72 1182.59 1019.03 1184.59 1024.8C1186.68 1030.55 1186.12 1037.05 1182.92 1044.32L1172.17 1068.74L1152.05 1059.88C1151.64 1059.7 1151.51 1059.44 1151.67 1059.09ZM1170.35 1064.06L1179.67 1042.88C1182.43 1036.62 1182.96 1031.05 1181.26 1026.17C1179.59 1021.24 1176 1017.56 1170.49 1015.14C1165.51 1012.95 1160.46 1012.89 1155.35 1014.98C1150.3 1017.09 1146.62 1020.75 1144.33 1025.96L1134.5 1048.28L1149.62 1054.93L1159.59 1032.26C1160.6 1029.98 1162.04 1029.25 1163.91 1030.07C1165.85 1030.92 1166.31 1032.49 1165.31 1034.78L1155.33 1057.45L1170.35 1064.06ZM1220.71 1082.14C1216.05 1083.37 1212.02 1084.01 1208.64 1084.06C1205.26 1084.11 1202.11 1083.49 1199.18 1082.2C1192.39 1079.21 1187.66 1074.3 1185.01 1067.47C1182.38 1060.58 1182.57 1053.7 1185.59 1046.85C1188.58 1040.06 1193.45 1035.35 1200.19 1032.72C1207 1030.13 1213.89 1030.36 1220.86 1033.43C1227.54 1036.37 1232.19 1041.14 1234.8 1047.75C1237.42 1054.35 1237.24 1061.02 1234.28 1067.76C1234.2 1067.94 1233.2 1069.91 1231.26 1073.67L1217.46 1067.6C1217 1067.39 1216.72 1067.37 1216.65 1067.55C1216.62 1067.61 1216.66 1067.84 1216.77 1068.23L1220.71 1082.14ZM1229.62 1069.06C1230.45 1067.48 1230.93 1066.56 1231.03 1066.33C1233.58 1060.53 1233.7 1054.78 1231.39 1049.08C1229.16 1043.34 1225.17 1039.21 1219.43 1036.68C1213.4 1034.02 1207.43 1033.84 1201.52 1036.14C1195.64 1038.38 1191.41 1042.42 1188.84 1048.28C1186.23 1054.2 1186.06 1060.14 1188.33 1066.1C1190.66 1072.09 1194.76 1076.37 1200.61 1078.95C1205.18 1080.96 1210.39 1081.2 1216.25 1079.65L1212.2 1065.49C1210.13 1066.39 1208.36 1066.52 1206.89 1065.88C1205.02 1065.05 1203.84 1063.59 1203.37 1061.5C1202.98 1059.37 1203.36 1056.98 1204.52 1054.35C1205.66 1051.77 1207.14 1049.98 1208.99 1048.97C1210.91 1047.93 1212.81 1047.82 1214.69 1048.65C1217.5 1049.88 1218.51 1052.11 1217.72 1055.33L1209.99 1051.93C1208.93 1053.07 1208.14 1054.23 1207.63 1055.4C1207.14 1056.51 1206.85 1057.71 1206.77 1059.01L1229.62 1069.06ZM1209.04 1063.15L1207.63 1062.53C1207.22 1062.35 1207 1062.29 1206.98 1062.35C1206.95 1062.41 1207.06 1062.56 1207.3 1062.81C1207.57 1062.99 1207.82 1063.14 1208.05 1063.24C1208.23 1063.32 1208.48 1063.39 1208.79 1063.46C1209.14 1063.48 1209.32 1063.45 1209.35 1063.39C1209.38 1063.34 1209.27 1063.26 1209.04 1063.15Z" fill="white"/>
<path d="M513.94 598.131C508.443 592.985 505.016 586.791 503.658 579.55C502.359 572.335 503.179 565.389 506.118 558.711C508.645 552.971 512.439 548.243 517.501 544.527C522.563 540.812 528.215 538.615 534.458 537.936C540.759 537.283 546.75 538.207 552.432 540.708C558.114 543.209 562.813 546.991 566.528 552.053C570.302 557.141 572.529 562.806 573.207 569.048C573.886 575.29 572.962 581.282 570.435 587.022C567.496 593.7 562.868 598.97 556.553 602.833C550.296 606.722 543.413 608.378 535.906 607.8L533.392 613.511L511.426 603.842L513.94 598.131ZM533.738 603.909C540.845 605.079 547.478 603.909 553.639 600.397C559.859 596.911 564.373 591.976 567.184 585.591C570.691 577.625 570.841 569.579 567.634 561.455C564.453 553.272 558.909 547.44 551.001 543.959C543.093 540.479 535.048 540.329 526.865 543.509C518.708 546.632 512.876 552.176 509.369 560.142C506.559 566.527 505.897 573.193 507.384 580.141C508.955 587.056 512.585 592.71 518.274 597.102L516.108 602.022L531.572 608.829L533.738 603.909ZM526.536 579.761C525.327 577.9 524.654 575.856 524.516 573.627C524.378 571.399 524.76 569.26 525.663 567.21C527.184 563.754 529.716 561.337 533.259 559.96C536.887 558.55 540.429 558.605 543.885 560.126C547.341 561.648 549.744 564.209 551.096 567.811C552.532 571.38 552.489 574.892 550.968 578.348C549.034 582.741 545.71 585.369 540.995 586.23L543.586 580.344L529.089 573.962L526.536 579.761ZM546.307 577.975C547.01 578.284 547.568 577.971 547.98 577.033C549.141 574.397 549.167 571.717 548.059 568.991C547.035 566.233 545.206 564.274 542.57 563.114C539.934 561.954 537.224 561.914 534.44 562.997C531.74 564.046 529.81 565.889 528.65 568.525C528.367 569.169 528.245 569.605 528.284 569.832C528.35 570.001 528.559 570.162 528.91 570.317L546.307 577.975ZM612.021 616.446C608.823 623.709 604.389 628.54 598.718 630.939C593.132 633.305 587.117 633.069 580.673 630.233C574.816 627.655 570.736 623.341 568.433 617.293C566.215 611.212 566.46 605.097 569.167 598.946L580.654 572.85L601.039 581.823C601.331 581.952 601.401 582.192 601.246 582.544L589.836 608.464C589.707 608.757 589.76 608.955 589.994 609.058C590.287 609.187 590.498 609.105 590.627 608.812L602.037 582.892C602.191 582.54 602.474 582.455 602.884 582.635L623.005 591.492L612.021 616.446ZM608.77 615.015L618.323 593.312L603.298 586.699L593.087 609.895C592.082 612.179 590.612 612.896 588.679 612.045C586.805 611.22 586.371 609.665 587.376 607.381L597.587 584.185L582.474 577.532L572.418 600.377C570.123 605.59 569.905 610.773 571.762 615.926C573.678 621.105 577.125 624.79 582.104 626.982C587.611 629.406 592.735 629.599 597.478 627.561C602.247 625.464 606.011 621.282 608.77 615.015ZM650.971 651.632C646.303 652.864 642.28 653.505 638.901 653.556C635.522 653.607 632.368 652.988 629.44 651.699C622.645 648.708 617.919 643.796 615.263 636.963C612.633 630.071 612.826 623.198 615.843 616.345C618.834 609.55 623.703 604.841 630.452 602.218C637.26 599.62 644.149 599.855 651.119 602.924C657.797 605.863 662.444 610.636 665.06 617.242C667.677 623.848 667.502 630.519 664.537 637.255C664.46 637.431 663.453 639.4 661.517 643.163L647.722 637.091C647.254 636.884 646.981 636.869 646.903 637.045C646.878 637.103 646.917 637.331 647.023 637.727L650.971 651.632ZM659.873 638.558C660.712 636.97 661.183 636.058 661.286 635.824C663.839 630.025 663.958 624.273 661.644 618.57C659.414 612.833 655.429 608.702 649.688 606.175C643.655 603.519 637.686 603.339 631.78 605.634C625.901 607.871 621.672 611.918 619.094 617.776C616.489 623.692 616.322 629.632 618.592 635.596C620.92 641.586 625.013 645.87 630.871 648.448C635.44 650.459 640.652 650.691 646.508 649.143L642.461 634.985C640.385 635.889 638.614 636.018 637.15 635.374C635.276 634.549 634.101 633.088 633.625 630.99C633.234 628.86 633.619 626.477 634.779 623.841C635.914 621.264 637.402 619.472 639.244 618.464C641.17 617.424 643.071 617.317 644.945 618.142C647.757 619.38 648.769 621.608 647.981 624.828L640.249 621.424C639.187 622.565 638.398 623.721 637.883 624.893C637.393 626.006 637.108 627.209 637.028 628.502L659.873 638.558ZM639.294 632.647L637.889 632.028C637.479 631.847 637.261 631.786 637.235 631.845C637.209 631.904 637.317 632.056 637.558 632.302C637.825 632.489 638.076 632.635 638.31 632.738C638.486 632.815 638.733 632.889 639.052 632.959C639.396 632.971 639.581 632.948 639.607 632.889C639.633 632.831 639.529 632.75 639.294 632.647ZM698.607 650.574C696.147 649.491 694.462 649.029 693.553 649.188C692.669 649.289 691.885 649.957 691.201 651.195C683.551 665.239 672.257 668.973 657.32 662.398L651.96 660.039L661.861 637.546C664.673 638.783 666.726 639.442 668.019 639.522C669.313 639.602 670.392 638.818 671.257 637.171C673.502 632.705 675.343 629.635 676.78 627.959C678.301 626.252 680.31 624.863 682.808 623.795C685.391 622.694 688.19 622.213 691.205 622.352C694.221 622.491 697.311 623.256 700.474 624.649L708.469 628.168L698.607 650.574ZM696.787 645.892L703.787 629.988L699.13 627.938C696.293 626.759 693.61 626.103 691.082 625.969C688.612 625.861 686.297 626.275 684.136 627.212C682.002 628.09 680.339 629.246 679.148 630.68C678.016 632.14 676.444 634.839 674.43 638.778C673.146 641.219 671.744 642.735 670.226 643.325C668.733 643.857 666.552 643.491 663.681 642.228L656.642 658.219L658.751 659.147C671.696 664.845 681.468 661.63 688.066 649.5C689.332 647.26 690.539 645.868 691.687 645.325C692.861 644.723 694.561 644.912 696.787 645.892ZM714.487 689.135C705.057 684.984 698.864 679.671 695.911 673.197C693.041 666.689 693.476 659.188 697.214 650.695L713.536 613.616L735.15 623.13L727.995 639.385L734.761 642.363L724.899 664.769L718.66 662.023C718.62 663.544 720.504 665.142 724.311 666.818L714.487 689.135ZM712.667 684.453L719.629 668.638C716.935 667.452 715.347 666.054 714.867 664.444C714.413 662.776 714.895 660.331 716.313 657.109L723.079 660.087L730.079 644.183L723.313 641.205L730.468 624.95L715.356 618.298L700.465 652.126C697.294 659.331 696.778 665.746 698.916 671.373C701.113 677.025 705.697 681.385 712.667 684.453ZM755.923 705.801L739.844 698.724C732.756 695.604 728.069 691.478 725.783 686.346C723.555 681.24 723.873 675.436 726.735 668.934L736.21 647.407C738.995 641.081 742.935 636.976 748.029 635.093C753.208 633.177 759.078 633.663 765.638 636.551L783.035 644.208L773.173 666.614L772.558 666.343C772.265 666.214 771.989 666.443 771.732 667.028L764.925 682.493C764.744 682.903 764.83 683.185 765.181 683.34L765.708 683.572L755.923 705.801ZM754.103 701.119L761.026 685.392L750.043 680.557C748.052 679.68 746.84 678.937 746.409 678.328C746.063 677.686 746.134 676.809 746.624 675.696C747.088 674.641 747.703 674.038 748.47 673.886C749.236 673.734 750.351 673.98 751.816 674.624L762.447 679.304L767.862 667.003L758.9 663.058C757.26 662.336 756.136 661.632 755.529 660.945C755.007 660.226 754.991 659.31 755.48 658.197C756.28 656.381 758.085 656.092 760.897 657.329L771.353 661.932L778.353 646.028L764.207 639.802C758.701 637.378 753.78 636.96 749.445 638.548C745.11 640.136 741.782 643.566 739.461 648.838L729.986 670.365C727.588 675.812 727.355 680.709 729.288 685.056C731.246 689.345 735.242 692.817 741.275 695.473L754.103 701.119ZM781.937 716.623L793.114 691.23C793.243 690.937 793.161 690.726 792.868 690.597C792.634 690.494 792.452 690.589 792.323 690.882L781.146 716.275C780.991 716.626 780.767 716.737 780.474 716.608L760.09 707.635L771.345 682.067C774.052 675.916 778.384 671.635 784.341 669.222C790.382 666.777 796.331 666.843 802.189 669.422C808.632 672.258 812.855 676.564 814.858 682.341C816.945 688.084 816.39 694.588 813.192 701.851L802.44 726.277L782.32 717.421C781.909 717.24 781.782 716.974 781.937 716.623ZM800.621 721.595L809.941 700.42C812.7 694.152 813.23 688.582 811.529 683.707C809.855 678.775 806.264 675.097 800.758 672.673C795.779 670.481 790.733 670.428 785.62 672.512C780.565 674.623 776.89 678.285 774.596 683.498L764.772 705.816L779.885 712.468L789.863 689.799C790.869 687.514 792.309 686.785 794.183 687.61C796.116 688.461 796.58 690.028 795.574 692.313L785.596 714.982L800.621 721.595ZM856.831 739.73C853.325 747.697 848.208 753.206 841.48 756.258C834.811 759.336 827.786 759.251 820.405 756.002C816.773 754.403 813.22 752.07 809.746 749.002L818.177 729.848C818.435 729.262 818.394 728.72 818.054 728.221C815.573 724.961 814.14 721.148 813.754 716.783C813.368 712.417 814.116 708.097 815.998 703.82C818.886 697.26 823.692 692.697 830.415 690.132C837.138 687.568 843.897 687.781 850.692 690.772C858.072 694.021 862.816 698.731 864.924 704.903C867.032 711.076 866.268 718.292 862.633 726.551L856.831 739.73ZM853.581 738.299L859.382 725.12C862.553 717.915 863.249 711.648 861.469 706.319C859.715 700.932 855.645 696.833 849.26 694.023C843.403 691.444 837.547 691.244 831.694 693.423C825.898 695.627 821.75 699.57 819.249 705.251C816.877 710.64 816.561 715.886 818.301 720.987C820.1 726.114 823.431 729.748 828.292 731.888C830.401 732.816 832.678 733.364 835.121 733.531L841.194 719.736C839.992 719.766 838.893 719.562 837.897 719.124C836.374 718.453 835.304 717.388 834.688 715.928C834.131 714.494 834.2 712.986 834.896 711.405C835.567 709.882 836.661 708.825 838.18 708.235C839.783 707.612 841.316 707.623 842.781 708.267C846.178 709.763 846.948 712.619 845.092 716.837L838.44 731.949C836.97 735.288 835.074 737.53 832.752 738.676C830.488 739.847 828.097 739.878 825.578 738.77C823.586 737.893 821.752 736.421 820.074 734.354L814.041 748.061C816.557 750.287 819.192 752.007 821.945 753.218C828.095 755.926 834.139 755.859 840.074 753.017C845.984 750.235 850.486 745.329 853.581 738.299ZM839.201 715.922C840.08 716.309 840.763 716.504 841.25 716.509C841.822 716.481 842.224 716.204 842.456 715.676C843.539 713.216 843.26 711.625 841.62 710.903C840.859 710.568 840.056 710.564 839.213 710.892C838.453 711.187 837.893 711.745 837.532 712.565C836.888 714.029 837.444 715.148 839.201 715.922ZM826.735 735.188C827.965 735.73 829.009 735.979 829.866 735.937C830.808 735.863 830.801 735.72 829.845 735.509C829.032 735.291 828.157 734.975 827.22 734.563C825.111 733.634 823.324 732.533 821.857 731.258C821.648 731.096 821.486 730.99 821.368 730.938C821.277 730.828 821.218 730.802 821.193 730.861C821.167 730.919 821.712 731.509 822.827 732.629C824.026 733.716 825.329 734.569 826.735 735.188ZM896.959 713.655L899.332 714.7L879.336 760.125L857.722 750.611L877.717 705.185L880.09 706.23C880.5 706.41 880.743 706.412 880.821 706.237C880.898 706.061 880.855 705.762 880.691 705.34C880 702.938 880.209 700.478 881.317 697.959C882.607 695.031 884.715 693.022 887.642 691.932C890.594 690.785 893.535 690.855 896.464 692.145C899.392 693.434 901.431 695.555 902.578 698.507C903.752 701.401 903.694 704.313 902.405 707.242C901.322 709.702 899.594 711.563 897.22 712.826C896.856 713.016 896.649 713.169 896.598 713.286C896.546 713.403 896.667 713.526 896.959 713.655ZM888.651 709.893C890.643 710.77 892.651 710.815 894.675 710.028C896.784 709.208 898.277 707.802 899.154 705.811C900.031 703.819 900.046 701.798 899.201 699.748C898.414 697.723 897.024 696.272 895.033 695.396C893.041 694.519 891.004 694.461 888.92 695.222C886.896 696.009 885.445 697.399 884.568 699.39C883.692 701.382 883.634 703.419 884.395 705.503C885.241 707.553 886.659 709.017 888.651 709.893ZM877.516 755.443L894.65 716.52L879.537 709.867L862.404 748.791L877.516 755.443ZM905.667 771.087L916.845 745.694C916.974 745.401 916.892 745.19 916.599 745.061C916.365 744.958 916.183 745.053 916.054 745.346L904.877 770.739C904.722 771.09 904.498 771.201 904.205 771.072L883.821 762.099L895.076 736.531C897.783 730.38 902.115 726.099 908.072 723.686C914.113 721.241 920.062 721.307 925.92 723.886C932.363 726.722 936.586 731.028 938.589 736.805C940.676 742.548 940.121 749.052 936.923 756.315L926.171 780.741L906.05 771.885C905.64 771.704 905.513 771.438 905.667 771.087ZM924.351 776.059L933.672 754.884C936.431 748.616 936.961 743.046 935.26 738.171C933.585 733.239 929.995 729.561 924.489 727.137C919.51 724.945 914.464 724.892 909.351 726.976C904.296 729.087 900.621 732.749 898.326 737.962L888.503 760.28L903.615 766.932L913.594 744.263C914.599 741.978 916.039 741.249 917.914 742.074C919.847 742.925 920.311 744.492 919.305 746.777L909.327 769.446L924.351 776.059ZM974.714 794.137C970.046 795.369 966.022 796.011 962.644 796.062C959.265 796.113 956.111 795.494 953.182 794.204C946.387 791.213 941.662 786.301 939.005 779.468C936.375 772.576 936.568 765.704 939.585 758.85C942.576 752.055 947.446 747.346 954.195 744.723C961.002 742.125 967.891 742.361 974.862 745.429C981.539 748.369 986.186 753.141 988.803 759.747C991.419 766.353 991.245 773.024 988.28 779.76C988.202 779.936 987.196 781.905 985.259 785.668L971.465 779.596C970.996 779.39 970.723 779.375 970.646 779.55C970.62 779.609 970.66 779.836 970.765 780.232L974.714 794.137ZM983.615 781.064C984.454 779.475 984.925 778.564 985.029 778.329C987.581 772.53 987.7 766.779 985.386 761.075C983.156 755.339 979.171 751.207 973.431 748.68C967.397 746.024 961.428 745.844 955.523 748.14C949.643 750.376 945.414 754.424 942.836 760.281C940.232 766.198 940.065 772.138 942.334 778.101C944.662 784.091 948.755 788.375 954.613 790.953C959.182 792.965 964.394 793.196 970.25 791.648L966.203 777.49C964.127 778.394 962.357 778.524 960.892 777.879C959.018 777.054 957.843 775.593 957.368 773.496C956.977 771.366 957.361 768.983 958.522 766.347C959.656 763.769 961.144 761.977 962.986 760.97C964.913 759.93 966.813 759.822 968.687 760.647C971.499 761.885 972.511 764.113 971.723 767.333L963.991 763.929C962.929 765.07 962.141 766.227 961.625 767.398C961.135 768.511 960.85 769.714 960.77 771.008L983.615 781.064ZM963.037 775.152L961.631 774.533C961.221 774.353 961.003 774.292 960.977 774.35C960.952 774.409 961.059 774.561 961.301 774.807C961.568 774.995 961.818 775.14 962.053 775.243C962.228 775.321 962.476 775.394 962.794 775.465C963.139 775.477 963.324 775.453 963.35 775.395C963.375 775.336 963.271 775.255 963.037 775.152Z" fill="white"/>
<path d="M851.94 538.131C846.443 532.985 843.016 526.791 841.658 519.55C840.359 512.335 841.179 505.389 844.118 498.711C846.645 492.971 850.439 488.243 855.501 484.527C860.563 480.812 866.215 478.615 872.458 477.936C878.759 477.283 884.75 478.207 890.432 480.708C896.114 483.209 900.813 486.991 904.528 492.053C908.302 497.141 910.529 502.806 911.207 509.048C911.886 515.29 910.962 521.282 908.435 527.022C905.496 533.7 900.868 538.97 894.553 542.833C888.296 546.722 881.413 548.378 873.906 547.8L871.392 553.511L849.426 543.842L851.94 538.131ZM871.738 543.909C878.845 545.079 885.478 543.909 891.639 540.397C897.859 536.911 902.373 531.976 905.184 525.591C908.691 517.625 908.841 509.579 905.634 501.455C902.453 493.272 896.909 487.44 889.001 483.959C881.093 480.479 873.048 480.329 864.865 483.509C856.708 486.632 850.876 492.176 847.369 500.142C844.559 506.527 843.897 513.193 845.384 520.141C846.955 527.056 850.585 532.71 856.274 537.102L854.108 542.022L869.572 548.829L871.738 543.909ZM864.536 519.761C863.327 517.9 862.654 515.856 862.516 513.627C862.378 511.399 862.76 509.26 863.663 507.21C865.184 503.754 867.716 501.337 871.259 499.96C874.887 498.55 878.429 498.605 881.885 500.126C885.341 501.648 887.744 504.209 889.096 507.811C890.532 511.38 890.489 514.892 888.968 518.348C887.034 522.741 883.71 525.369 878.995 526.23L881.586 520.344L867.089 513.962L864.536 519.761ZM884.307 517.975C885.01 518.284 885.568 517.971 885.98 517.033C887.141 514.397 887.167 511.717 886.059 508.991C885.035 506.233 883.206 504.274 880.57 503.114C877.934 501.954 875.224 501.914 872.44 502.997C869.74 504.046 867.81 505.889 866.65 508.525C866.367 509.169 866.245 509.605 866.284 509.832C866.35 510.001 866.559 510.162 866.91 510.317L884.307 517.975ZM950.021 556.446C946.823 563.709 942.389 568.54 936.718 570.939C931.132 573.305 925.117 573.069 918.673 570.233C912.816 567.655 908.736 563.341 906.433 557.293C904.215 551.212 904.46 545.097 907.167 538.946L918.654 512.85L939.039 521.823C939.331 521.952 939.401 522.192 939.246 522.544L927.836 548.464C927.707 548.757 927.76 548.955 927.994 549.058C928.287 549.187 928.498 549.105 928.627 548.812L940.037 522.892C940.191 522.54 940.474 522.455 940.884 522.635L961.005 531.492L950.021 556.446ZM946.77 555.015L956.323 533.312L941.298 526.699L931.087 549.895C930.082 552.179 928.612 552.896 926.679 552.045C924.805 551.22 924.371 549.665 925.376 547.381L935.587 524.185L920.474 517.532L910.418 540.377C908.123 545.59 907.905 550.773 909.762 555.926C911.678 561.105 915.125 564.79 920.104 566.982C925.611 569.406 930.735 569.599 935.478 567.561C940.247 565.464 944.011 561.282 946.77 555.015ZM988.971 591.632C984.303 592.864 980.28 593.505 976.901 593.556C973.522 593.607 970.368 592.988 967.44 591.699C960.645 588.708 955.919 583.796 953.263 576.963C950.633 570.071 950.826 563.198 953.843 556.345C956.834 549.55 961.703 544.841 968.452 542.218C975.26 539.62 982.149 539.855 989.119 542.924C995.797 545.863 1000.44 550.636 1003.06 557.242C1005.68 563.848 1005.5 570.519 1002.54 577.255C1002.46 577.431 1001.45 579.4 999.517 583.163L985.722 577.091C985.254 576.884 984.981 576.869 984.903 577.045C984.878 577.103 984.917 577.331 985.023 577.727L988.971 591.632ZM997.873 578.558C998.712 576.97 999.183 576.058 999.286 575.824C1001.84 570.025 1001.96 564.273 999.644 558.57C997.414 552.833 993.429 548.702 987.688 546.175C981.655 543.519 975.686 543.339 969.78 545.634C963.901 547.871 959.672 551.918 957.094 557.776C954.489 563.692 954.322 569.632 956.592 575.596C958.92 581.586 963.013 585.87 968.871 588.448C973.44 590.459 978.652 590.691 984.508 589.143L980.461 574.985C978.385 575.889 976.614 576.018 975.15 575.374C973.276 574.549 972.101 573.088 971.625 570.99C971.234 568.86 971.619 566.477 972.779 563.841C973.914 561.264 975.402 559.472 977.244 558.464C979.17 557.424 981.071 557.317 982.945 558.142C985.757 559.38 986.769 561.608 985.981 564.828L978.249 561.424C977.187 562.565 976.398 563.721 975.883 564.893C975.393 566.006 975.108 567.209 975.028 568.502L997.873 578.558ZM977.294 572.647L975.889 572.028C975.479 571.847 975.261 571.786 975.235 571.845C975.209 571.904 975.317 572.056 975.558 572.302C975.825 572.489 976.076 572.635 976.31 572.738C976.486 572.815 976.733 572.889 977.052 572.959C977.396 572.971 977.581 572.948 977.607 572.889C977.633 572.831 977.529 572.75 977.294 572.647ZM1036.61 590.574C1034.15 589.491 1032.46 589.029 1031.55 589.188C1030.67 589.289 1029.89 589.957 1029.2 591.195C1021.55 605.239 1010.26 608.973 995.32 602.398L989.96 600.039L999.861 577.546C1002.67 578.783 1004.73 579.442 1006.02 579.522C1007.31 579.602 1008.39 578.818 1009.26 577.171C1011.5 572.705 1013.34 569.635 1014.78 567.959C1016.3 566.252 1018.31 564.863 1020.81 563.795C1023.39 562.694 1026.19 562.213 1029.21 562.352C1032.22 562.491 1035.31 563.256 1038.47 564.649L1046.47 568.168L1036.61 590.574ZM1034.79 585.892L1041.79 569.988L1037.13 567.938C1034.29 566.759 1031.61 566.103 1029.08 565.969C1026.61 565.861 1024.3 566.275 1022.14 567.212C1020 568.09 1018.34 569.246 1017.15 570.68C1016.02 572.14 1014.44 574.839 1012.43 578.778C1011.15 581.219 1009.74 582.735 1008.23 583.325C1006.73 583.857 1004.55 583.491 1001.68 582.228L994.642 598.219L996.751 599.147C1009.7 604.845 1019.47 601.63 1026.07 589.5C1027.33 587.26 1028.54 585.868 1029.69 585.325C1030.86 584.723 1032.56 584.912 1034.79 585.892ZM1052.49 629.135C1043.06 624.984 1036.86 619.671 1033.91 613.197C1031.04 606.689 1031.48 599.188 1035.21 590.695L1051.54 553.616L1073.15 563.13L1066 579.385L1072.76 582.363L1062.9 604.769L1056.66 602.023C1056.62 603.544 1058.5 605.142 1062.31 606.818L1052.49 629.135ZM1050.67 624.453L1057.63 608.638C1054.93 607.452 1053.35 606.054 1052.87 604.444C1052.41 602.776 1052.89 600.331 1054.31 597.109L1061.08 600.087L1068.08 584.183L1061.31 581.205L1068.47 564.95L1053.36 558.298L1038.47 592.126C1035.29 599.331 1034.78 605.746 1036.92 611.373C1039.11 617.025 1043.7 621.385 1050.67 624.453ZM1093.92 645.801L1077.84 638.724C1070.76 635.604 1066.07 631.478 1063.78 626.346C1061.56 621.24 1061.87 615.436 1064.73 608.934L1074.21 587.407C1077 581.081 1080.93 576.976 1086.03 575.093C1091.21 573.177 1097.08 573.663 1103.64 576.551L1121.04 584.208L1111.17 606.614L1110.56 606.343C1110.26 606.214 1109.99 606.443 1109.73 607.028L1102.92 622.493C1102.74 622.903 1102.83 623.185 1103.18 623.34L1103.71 623.572L1093.92 645.801ZM1092.1 641.119L1099.03 625.392L1088.04 620.557C1086.05 619.68 1084.84 618.937 1084.41 618.328C1084.06 617.686 1084.13 616.809 1084.62 615.696C1085.09 614.641 1085.7 614.038 1086.47 613.886C1087.24 613.734 1088.35 613.98 1089.82 614.624L1100.45 619.304L1105.86 607.003L1096.9 603.058C1095.26 602.336 1094.14 601.632 1093.53 600.945C1093.01 600.226 1092.99 599.31 1093.48 598.197C1094.28 596.381 1096.09 596.092 1098.9 597.329L1109.35 601.932L1116.35 586.028L1102.21 579.802C1096.7 577.378 1091.78 576.96 1087.45 578.548C1083.11 580.136 1079.78 583.566 1077.46 588.838L1067.99 610.365C1065.59 615.812 1065.36 620.709 1067.29 625.056C1069.25 629.345 1073.24 632.817 1079.27 635.473L1092.1 641.119ZM1119.94 656.623L1131.11 631.23C1131.24 630.937 1131.16 630.726 1130.87 630.597C1130.63 630.494 1130.45 630.589 1130.32 630.882L1119.15 656.275C1118.99 656.626 1118.77 656.737 1118.47 656.608L1098.09 647.635L1109.34 622.067C1112.05 615.916 1116.38 611.635 1122.34 609.222C1128.38 606.777 1134.33 606.843 1140.19 609.422C1146.63 612.258 1150.86 616.564 1152.86 622.341C1154.94 628.084 1154.39 634.588 1151.19 641.851L1140.44 666.277L1120.32 657.421C1119.91 657.24 1119.78 656.974 1119.94 656.623ZM1138.62 661.595L1147.94 640.42C1150.7 634.152 1151.23 628.582 1149.53 623.707C1147.85 618.775 1144.26 615.097 1138.76 612.673C1133.78 610.481 1128.73 610.428 1123.62 612.512C1118.57 614.623 1114.89 618.285 1112.6 623.498L1102.77 645.816L1117.88 652.468L1127.86 629.799C1128.87 627.514 1130.31 626.785 1132.18 627.61C1134.12 628.461 1134.58 630.028 1133.57 632.313L1123.6 654.982L1138.62 661.595ZM1194.83 679.73C1191.32 687.697 1186.21 693.206 1179.48 696.258C1172.81 699.336 1165.79 699.251 1158.41 696.002C1154.77 694.403 1151.22 692.07 1147.75 689.002L1156.18 669.848C1156.43 669.262 1156.39 668.72 1156.05 668.221C1153.57 664.961 1152.14 661.148 1151.75 656.783C1151.37 652.417 1152.12 648.097 1154 643.82C1156.89 637.26 1161.69 632.697 1168.41 630.132C1175.14 627.568 1181.9 627.781 1188.69 630.772C1196.07 634.021 1200.82 638.731 1202.92 644.903C1205.03 651.076 1204.27 658.292 1200.63 666.551L1194.83 679.73ZM1191.58 678.299L1197.38 665.12C1200.55 657.915 1201.25 651.648 1199.47 646.319C1197.71 640.932 1193.65 636.833 1187.26 634.023C1181.4 631.444 1175.55 631.244 1169.69 633.423C1163.9 635.627 1159.75 639.57 1157.25 645.251C1154.88 650.64 1154.56 655.886 1156.3 660.987C1158.1 666.114 1161.43 669.748 1166.29 671.888C1168.4 672.816 1170.68 673.364 1173.12 673.531L1179.19 659.736C1177.99 659.766 1176.89 659.562 1175.9 659.124C1174.37 658.453 1173.3 657.388 1172.69 655.928C1172.13 654.494 1172.2 652.986 1172.9 651.405C1173.57 649.882 1174.66 648.825 1176.18 648.235C1177.78 647.612 1179.32 647.623 1180.78 648.267C1184.18 649.763 1184.95 652.619 1183.09 656.837L1176.44 671.949C1174.97 675.288 1173.07 677.53 1170.75 678.676C1168.49 679.847 1166.1 679.878 1163.58 678.77C1161.59 677.893 1159.75 676.421 1158.07 674.354L1152.04 688.061C1154.56 690.287 1157.19 692.007 1159.94 693.218C1166.1 695.926 1172.14 695.859 1178.07 693.017C1183.98 690.235 1188.49 685.329 1191.58 678.299ZM1177.2 655.922C1178.08 656.309 1178.76 656.504 1179.25 656.509C1179.82 656.481 1180.22 656.204 1180.46 655.676C1181.54 653.216 1181.26 651.625 1179.62 650.903C1178.86 650.568 1178.06 650.564 1177.21 650.892C1176.45 651.187 1175.89 651.745 1175.53 652.565C1174.89 654.029 1175.44 655.148 1177.2 655.922ZM1164.73 675.188C1165.96 675.73 1167.01 675.979 1167.87 675.937C1168.81 675.863 1168.8 675.72 1167.85 675.509C1167.03 675.291 1166.16 674.975 1165.22 674.563C1163.11 673.634 1161.32 672.533 1159.86 671.258C1159.65 671.096 1159.49 670.99 1159.37 670.938C1159.28 670.828 1159.22 670.802 1159.19 670.861C1159.17 670.919 1159.71 671.509 1160.83 672.629C1162.03 673.716 1163.33 674.569 1164.73 675.188ZM1234.96 653.655L1237.33 654.7L1217.34 700.125L1195.72 690.611L1215.72 645.185L1218.09 646.23C1218.5 646.41 1218.74 646.412 1218.82 646.237C1218.9 646.061 1218.85 645.762 1218.69 645.34C1218 642.938 1218.21 640.478 1219.32 637.959C1220.61 635.031 1222.71 633.022 1225.64 631.932C1228.59 630.785 1231.53 630.855 1234.46 632.145C1237.39 633.434 1239.43 635.555 1240.58 638.507C1241.75 641.401 1241.69 644.313 1240.4 647.242C1239.32 649.702 1237.59 651.563 1235.22 652.826C1234.86 653.016 1234.65 653.169 1234.6 653.286C1234.55 653.403 1234.67 653.526 1234.96 653.655ZM1226.65 649.893C1228.64 650.77 1230.65 650.815 1232.68 650.028C1234.78 649.208 1236.28 647.802 1237.15 645.811C1238.03 643.819 1238.05 641.798 1237.2 639.748C1236.41 637.723 1235.02 636.272 1233.03 635.396C1231.04 634.519 1229 634.461 1226.92 635.222C1224.9 636.009 1223.45 637.399 1222.57 639.39C1221.69 641.382 1221.63 643.419 1222.4 645.503C1223.24 647.553 1224.66 649.017 1226.65 649.893ZM1215.52 695.443L1232.65 656.52L1217.54 649.867L1200.4 688.791L1215.52 695.443ZM1243.67 711.087L1254.84 685.694C1254.97 685.401 1254.89 685.19 1254.6 685.061C1254.36 684.958 1254.18 685.053 1254.05 685.346L1242.88 710.739C1242.72 711.09 1242.5 711.201 1242.21 711.072L1221.82 702.099L1233.08 676.531C1235.78 670.38 1240.11 666.099 1246.07 663.686C1252.11 661.241 1258.06 661.307 1263.92 663.886C1270.36 666.722 1274.59 671.028 1276.59 676.805C1278.68 682.548 1278.12 689.052 1274.92 696.315L1264.17 720.741L1244.05 711.885C1243.64 711.704 1243.51 711.438 1243.67 711.087ZM1262.35 716.059L1271.67 694.884C1274.43 688.616 1274.96 683.046 1273.26 678.171C1271.59 673.239 1268 669.561 1262.49 667.137C1257.51 664.945 1252.46 664.892 1247.35 666.976C1242.3 669.087 1238.62 672.749 1236.33 677.962L1226.5 700.28L1241.62 706.932L1251.59 684.263C1252.6 681.978 1254.04 681.249 1255.91 682.074C1257.85 682.925 1258.31 684.492 1257.31 686.777L1247.33 709.446L1262.35 716.059ZM1312.71 734.137C1308.05 735.369 1304.02 736.011 1300.64 736.062C1297.26 736.113 1294.11 735.494 1291.18 734.204C1284.39 731.213 1279.66 726.301 1277.01 719.468C1274.38 712.576 1274.57 705.704 1277.59 698.85C1280.58 692.055 1285.45 687.346 1292.19 684.723C1299 682.125 1305.89 682.361 1312.86 685.429C1319.54 688.369 1324.19 693.141 1326.8 699.747C1329.42 706.353 1329.24 713.024 1326.28 719.76C1326.2 719.936 1325.2 721.905 1323.26 725.668L1309.46 719.596C1309 719.39 1308.72 719.375 1308.65 719.55C1308.62 719.609 1308.66 719.836 1308.77 720.232L1312.71 734.137ZM1321.62 721.064C1322.45 719.475 1322.93 718.564 1323.03 718.329C1325.58 712.53 1325.7 706.779 1323.39 701.075C1321.16 695.339 1317.17 691.207 1311.43 688.68C1305.4 686.024 1299.43 685.844 1293.52 688.14C1287.64 690.376 1283.41 694.424 1280.84 700.281C1278.23 706.198 1278.06 712.138 1280.33 718.101C1282.66 724.091 1286.76 728.375 1292.61 730.953C1297.18 732.965 1302.39 733.196 1308.25 731.648L1304.2 717.49C1302.13 718.394 1300.36 718.524 1298.89 717.879C1297.02 717.054 1295.84 715.593 1295.37 713.496C1294.98 711.366 1295.36 708.983 1296.52 706.347C1297.66 703.769 1299.14 701.977 1300.99 700.97C1302.91 699.93 1304.81 699.822 1306.69 700.647C1309.5 701.885 1310.51 704.113 1309.72 707.333L1301.99 703.929C1300.93 705.07 1300.14 706.227 1299.63 707.398C1299.14 708.511 1298.85 709.714 1298.77 711.008L1321.62 721.064ZM1301.04 715.152L1299.63 714.533C1299.22 714.353 1299 714.292 1298.98 714.35C1298.95 714.409 1299.06 714.561 1299.3 714.807C1299.57 714.995 1299.82 715.14 1300.05 715.243C1300.23 715.321 1300.48 715.394 1300.79 715.465C1301.14 715.477 1301.32 715.453 1301.35 715.395C1301.38 715.336 1301.27 715.255 1301.04 715.152Z" fill="white"/>
<path d="M58.3577 74.2263C51.284 71.6456 45.7036 67.2907 41.6166 61.1614C37.5935 55.0329 35.6255 48.321 35.7126 41.0255C35.7875 34.7539 37.4254 28.9171 40.6261 23.5149C43.8268 18.1127 48.1657 13.8763 53.6428 10.8055C59.1839 7.73541 65.0582 6.23746 71.2657 6.3116C77.4733 6.38574 83.2782 8.02319 88.6803 11.2239C94.1465 14.4254 98.4149 18.7647 101.486 24.2418C104.557 29.7189 106.055 35.5932 105.98 41.8647C105.892 49.1602 103.701 55.8225 99.4044 61.8516C95.1721 67.8815 89.4893 72.1019 82.356 74.5129L82.2815 80.7525L58.2832 80.4658L58.3577 74.2263ZM78.8364 71.7827C85.8333 70.0741 91.4776 66.3973 95.7693 60.7521C100.125 55.1077 102.345 48.7978 102.428 41.8223C102.532 33.1189 99.5167 25.6584 93.3825 19.4407C87.2491 13.159 79.8627 9.96653 71.2233 9.86335C62.5839 9.76016 55.1234 12.7753 48.8417 18.9087C42.5608 24.9781 39.3683 32.3645 39.2644 41.0679C39.1811 48.0434 41.1849 54.4358 45.2758 60.2451C49.4314 65.9911 54.9867 69.7697 61.9416 71.5809L61.8774 76.9565L78.7722 77.1583L78.8364 71.7827ZM62.7468 52.3891C60.9055 51.1511 59.4847 49.534 58.4845 47.5379C57.4842 45.5418 56.9975 43.4238 57.0242 41.184C57.0693 37.4083 58.4518 34.1926 61.1718 31.5368C63.9564 28.8179 67.2366 27.481 71.0124 27.5261C74.7881 27.5712 78.0034 28.9857 80.6584 31.7696C83.3781 34.4903 84.7154 37.7385 84.6703 41.5142C84.6129 46.3139 82.5844 50.0339 78.5846 52.6743L78.6614 46.2428L62.8225 46.0536L62.7468 52.3891ZM80.2362 42.9974C81.0042 43.0065 81.3943 42.4991 81.4065 41.4752C81.4409 38.5954 80.4144 36.119 78.327 34.0459C76.3044 31.9096 73.8532 30.8242 70.9734 30.7899C68.0936 30.7555 65.5851 31.7816 63.4481 33.8682C61.3758 35.8916 60.3224 38.3432 60.288 41.223C60.2796 41.9269 60.3383 42.3757 60.4639 42.5692C60.5904 42.6987 60.8456 42.7658 61.2296 42.7703L80.2362 42.9974ZM155.77 52.6361C155.675 60.5716 153.489 66.7539 149.212 71.1831C145 75.5491 139.374 77.6901 132.334 77.606C125.935 77.5296 120.49 75.1604 116.002 70.4985C111.578 65.7733 109.406 60.0509 109.486 53.3314L109.827 24.8215L132.097 25.0874C132.417 25.0913 132.575 25.2852 132.57 25.6691L132.232 53.9871C132.228 54.3071 132.354 54.4686 132.61 54.4717C132.93 54.4755 133.092 54.3174 133.096 53.9974L133.434 25.6795C133.439 25.2955 133.665 25.1062 134.113 25.1115L156.096 25.3741L155.77 52.6361ZM152.218 52.5937L152.501 28.8834L136.087 28.6873L135.784 54.0295C135.754 56.5254 134.683 57.7607 132.571 57.7354C130.524 57.711 129.515 56.4508 129.544 53.955L129.847 28.6128L113.336 28.4156L113.038 53.3738C112.97 59.0694 114.8 63.9236 118.529 67.9365C122.321 71.95 126.937 73.9893 132.377 74.0543C138.392 74.1261 143.182 72.2952 146.747 68.5615C150.313 64.7638 152.136 59.4412 152.218 52.5937ZM205.395 69.742C201.583 72.7047 198.133 74.8717 195.044 76.2429C191.956 77.6141 188.812 78.2806 185.612 78.2424C178.188 78.1537 171.916 75.4866 166.794 70.241C161.673 64.9315 159.157 58.533 159.247 51.0455C159.335 43.6221 161.97 37.3811 167.151 32.3226C172.396 27.2649 178.826 24.7815 186.441 24.8725C193.737 24.9596 199.883 27.5292 204.879 32.5812C209.875 37.6332 212.329 43.839 212.241 51.1985C212.238 51.3904 212.084 53.5968 211.778 57.8174L196.707 57.6374C196.195 57.6313 195.938 57.7242 195.935 57.9162C195.935 57.9802 196.06 58.1737 196.312 58.4967L205.395 69.742ZM208.46 54.2255C208.61 52.4352 208.686 51.412 208.689 51.156C208.765 44.8205 206.62 39.4825 202.256 35.1421C197.956 30.7384 192.67 28.4991 186.399 28.4242C179.807 28.3455 174.245 30.5192 169.712 34.9454C165.179 39.3076 162.875 44.6884 162.799 51.088C162.721 57.5515 164.895 63.0819 169.321 67.679C173.81 72.277 179.255 74.6142 185.654 74.6906C190.646 74.7502 195.532 72.9205 200.313 69.2013L191.041 57.7617C189.485 59.4073 187.907 60.2205 186.307 60.2014C184.259 60.1769 182.606 59.2931 181.347 57.5499C180.152 55.7435 179.572 53.4005 179.606 50.5207C179.64 47.7049 180.307 45.4727 181.607 43.8241C182.971 42.1122 184.677 41.2686 186.725 41.293C189.797 41.3297 191.601 42.9834 192.138 46.254L183.691 46.1531C183.161 47.6189 182.889 48.9917 182.874 50.2717C182.859 51.4876 183.069 52.7062 183.502 53.9274L208.46 54.2255ZM187.211 56.8519L185.676 56.8336C185.228 56.8282 185.003 56.8576 185.002 56.9216C185.002 56.9856 185.16 57.0835 185.479 57.2153C185.798 57.2831 186.086 57.3185 186.342 57.3216C186.534 57.3239 186.79 57.2949 187.111 57.2348C187.432 57.1106 187.593 57.0165 187.594 56.9525C187.595 56.8885 187.467 56.855 187.211 56.8519ZM248.805 50.0991C246.117 50.067 244.386 50.3023 243.612 50.8051C242.839 51.2439 242.38 52.1665 242.235 53.5728C240.701 69.4916 231.774 77.3536 215.455 77.1587L209.6 77.0888L209.893 52.5145C212.965 52.5512 215.111 52.3528 216.333 51.9194C217.554 51.4859 218.24 50.342 218.39 48.4877C218.705 43.4991 219.196 39.9527 219.861 37.8485C220.591 35.6811 221.896 33.6165 223.775 31.6548C225.72 29.6299 228.106 28.0903 230.935 27.036C233.764 25.9817 236.906 25.4752 240.362 25.5165L249.097 25.6208L248.805 50.0991ZM245.295 46.5049L245.503 29.1301L240.415 29.0694C237.343 29.0967 234.617 29.5441 232.239 30.4118C229.924 31.2802 227.957 32.5688 226.336 34.2776C224.716 35.9224 223.64 37.6376 223.106 39.4234C222.637 41.2099 222.248 44.3095 221.939 48.7221C221.714 51.4716 221.019 53.4154 219.853 54.5536C218.689 55.6278 216.538 56.1461 213.402 56.1087L213.194 73.5794L215.498 73.6069C229.641 73.7759 237.37 66.9877 238.686 53.2424C238.973 50.6857 239.538 48.9323 240.381 47.9823C241.226 46.9683 242.864 46.4758 245.295 46.5049ZM278.528 79.3521C268.225 79.2291 260.446 76.768 255.19 71.9689C250 67.1065 247.46 60.0357 247.571 50.7564L248.055 10.2473L271.669 10.5293L271.457 28.288L278.849 28.3763L278.556 52.8546L271.741 52.7732C272.3 54.1879 274.659 54.9202 278.819 54.9699L278.528 79.3521ZM275.019 75.758L275.225 58.4792C272.281 58.444 270.273 57.78 269.2 56.4871C268.128 55.1302 267.614 52.6919 267.656 49.1721L275.047 49.2604L275.255 31.8856L267.863 31.7974L268.075 14.0386L251.564 13.8414L251.123 50.7988C251.029 58.6702 253.068 64.775 257.241 69.1132C261.477 73.4521 267.403 75.667 275.019 75.758ZM323.18 78.4453L305.614 78.2355C297.87 78.143 291.941 76.1841 287.827 72.3587C283.776 68.534 281.793 63.07 281.878 55.9665L282.159 32.4481C282.241 25.5366 284.257 20.2163 288.206 16.4872C292.22 12.6949 297.81 10.8415 304.978 10.9271L323.984 11.1541L323.692 35.6324L323.02 35.6244C322.7 35.6205 322.536 35.9386 322.528 36.5786L322.327 53.4734C322.321 53.9213 322.511 54.1476 322.895 54.1522L323.471 54.1591L323.18 78.4453ZM319.671 74.8512L319.876 57.6684L307.877 57.5251C305.701 57.4991 304.296 57.2903 303.66 56.8987C303.09 56.4438 302.812 55.6084 302.826 54.3925C302.84 53.2406 303.17 52.4445 303.815 52.0042C304.46 51.5638 305.583 51.3532 307.183 51.3723L318.798 51.5111L318.958 38.072L309.167 37.9551C307.375 37.9337 306.066 37.726 305.238 37.3321C304.476 36.875 304.102 36.0385 304.116 34.8225C304.14 32.8387 305.688 31.8651 308.759 31.9018L320.182 32.0382L320.39 14.6635L304.935 14.4789C298.92 14.407 294.229 15.9511 290.863 19.1111C287.497 22.2712 285.779 26.731 285.711 32.4906L285.43 56.0089C285.359 61.9605 287.064 66.5572 290.545 69.799C294.028 72.9768 299.065 74.605 305.656 74.6838L319.671 74.8512ZM351.354 78.2058L351.685 50.4638C351.689 50.1438 351.531 49.9819 351.211 49.9781C350.955 49.975 350.825 50.1335 350.821 50.4535L350.49 78.1955C350.485 78.5794 350.323 78.7695 350.003 78.7657L327.733 78.4997L328.066 50.5657C328.147 43.8462 330.454 38.2093 334.989 33.6552C339.588 29.0378 345.088 26.7673 351.487 26.8437C358.527 26.9278 364.1 29.2345 368.206 33.7639C372.377 38.23 374.415 44.4308 374.32 52.3662L374.001 79.0523L352.019 78.7898C351.571 78.7844 351.349 78.5898 351.354 78.2058ZM370.492 75.4582L370.768 52.3238C370.85 45.4763 369.154 40.1437 365.679 36.3259C362.205 32.4441 357.46 30.4673 351.445 30.3955C346.005 30.3305 341.342 32.2589 337.455 36.1808C333.632 40.1034 331.686 44.9125 331.618 50.6081L331.327 74.9904L347.838 75.1876L348.133 50.4213C348.163 47.9255 349.202 46.6898 351.25 46.7143C353.362 46.7395 354.403 48 354.373 50.4959L354.077 75.2621L370.492 75.4582ZM429.314 70.1123C429.21 78.8157 426.661 85.8897 421.668 91.3345C416.738 96.78 410.242 99.4546 402.178 99.3583C398.211 99.3109 394.027 98.5569 389.628 97.0962L389.878 76.1697C389.886 75.5298 389.636 75.0468 389.128 74.7207C385.568 72.694 382.755 69.7482 380.689 65.8833C378.623 62.0183 377.618 57.75 377.673 53.0783C377.759 45.9108 380.392 39.8298 385.572 34.8354C390.752 29.8409 397.054 27.388 404.477 27.4766C412.54 27.5729 418.751 30.0473 423.11 34.8997C427.468 39.7521 429.593 46.6899 429.486 55.7133L429.314 70.1123ZM425.762 70.0699L425.934 55.6709C426.028 47.7994 424.212 41.7613 420.486 37.5565C416.76 33.2877 411.41 31.1117 404.435 31.0284C398.035 30.9519 392.569 33.0628 388.038 37.361C383.57 41.6599 381.299 46.9132 381.225 53.1207C381.155 59.0083 382.92 63.9578 386.52 67.969C390.184 71.9811 394.672 74.0188 399.984 74.0823C402.288 74.1098 404.597 73.7213 406.91 72.9169L407.09 57.846C405.996 58.345 404.905 58.588 403.818 58.575C402.154 58.5551 400.752 57.9943 399.613 56.8926C398.538 55.7917 398.011 54.3773 398.032 52.6494C398.052 50.9856 398.645 49.5845 399.81 48.4464C401.041 47.245 402.456 46.6538 404.056 46.673C407.767 46.7173 409.596 49.0433 409.541 53.651L409.344 70.1618C409.3 73.8095 408.434 76.6154 406.747 78.5794C405.123 80.5441 402.936 81.5101 400.184 81.4772C398.008 81.4512 395.743 80.8161 393.39 79.5719L393.211 94.5469C396.399 95.609 399.496 96.158 402.504 96.194C409.224 96.2742 414.757 93.8441 419.104 88.9037C423.451 84.0273 425.67 77.7493 425.762 70.0699ZM403.763 55.1181C404.723 55.1295 405.428 55.0419 405.878 54.8553C406.393 54.6054 406.654 54.1925 406.661 53.6166C406.693 50.9288 405.813 49.5741 404.021 49.5527C403.189 49.5428 402.45 49.854 401.802 50.4863C401.219 51.0554 400.922 51.7879 400.912 52.6838C400.893 54.2837 401.843 55.0951 403.763 55.1181ZM399.844 77.7289C401.188 77.7449 402.247 77.5656 403.019 77.1908C403.856 76.7527 403.794 76.624 402.832 76.8045C401.998 76.9225 401.07 76.9755 400.046 76.9632C397.742 76.9357 395.665 76.6229 393.816 76.0248C393.561 75.9577 393.37 75.9234 393.242 75.9219C393.114 75.8564 393.05 75.8556 393.05 75.9196C393.049 75.9836 393.781 76.3124 395.246 76.9059C396.776 77.4362 398.309 77.7105 399.844 77.7289ZM456.012 30.3963L458.604 30.4273L458.011 80.0557L434.397 79.7737L434.99 30.1452L437.581 30.1762C438.029 30.1815 438.254 30.0882 438.257 29.8962C438.259 29.7042 438.102 29.4463 437.786 29.1225C436.209 27.1836 435.437 24.8382 435.47 22.0864C435.508 18.8866 436.66 16.2122 438.926 14.0631C441.192 11.85 443.926 10.7626 447.125 10.8008C450.325 10.839 453.032 11.9914 455.245 14.258C457.459 16.4606 458.546 19.1618 458.508 22.3615C458.476 25.0493 457.615 27.4392 455.926 29.5312C455.667 29.8481 455.536 30.0706 455.534 30.1986C455.533 30.3266 455.692 30.3925 456.012 30.3963ZM446.894 30.1914C449.07 30.2174 450.935 29.4716 452.489 27.954C454.108 26.3733 454.93 24.495 454.956 22.3191C454.982 20.1433 454.205 18.2779 452.623 16.7229C451.106 15.1686 449.259 14.3785 447.083 14.3525C444.907 14.3265 443.01 15.0719 441.392 16.5887C439.838 18.1063 439.048 19.953 439.022 22.1288C438.996 24.3046 439.741 26.2017 441.258 27.8199C442.839 29.3749 444.718 30.1654 446.894 30.1914ZM454.502 76.4616L455.01 33.9366L438.499 33.7394L437.991 76.2644L454.502 76.4616ZM486.532 79.8203L486.863 52.0783C486.867 51.7583 486.709 51.5964 486.389 51.5926C486.133 51.5895 486.003 51.748 485.999 52.068L485.668 79.81C485.663 80.194 485.501 80.384 485.181 80.3802L462.91 80.1142L463.244 52.1802C463.324 45.4607 465.632 39.8239 470.167 35.2697C474.766 30.6523 480.266 28.3818 486.665 28.4583C493.705 28.5423 499.277 30.849 503.384 35.3784C507.555 39.8445 509.593 46.0453 509.498 53.9808L509.179 80.6669L487.197 80.4043C486.749 80.399 486.527 80.2043 486.532 79.8203ZM505.67 77.0727L505.946 53.9383C506.028 47.0908 504.332 41.7582 500.857 37.9404C497.383 34.0587 492.638 32.0818 486.623 32.01C481.183 31.945 476.52 33.8735 472.633 37.7953C468.809 41.7179 466.864 46.5271 466.796 52.2226L466.505 76.6049L483.015 76.8021L483.311 52.0359C483.341 49.5401 484.38 48.3044 486.428 48.3288C488.54 48.3541 489.581 49.6146 489.551 52.1104L489.255 76.8766L505.67 77.0727ZM559.088 73.9664C555.277 76.9291 551.826 79.0961 548.738 80.4673C545.649 81.8385 542.505 82.505 539.305 82.4668C531.882 82.3781 525.609 79.711 520.488 74.4655C515.367 69.1559 512.851 62.7574 512.94 55.27C513.029 47.8465 515.664 41.6055 520.844 36.547C526.089 31.4893 532.519 29.0059 540.135 29.0969C547.43 29.184 553.576 31.7536 558.572 36.8056C563.568 41.8576 566.022 48.0634 565.934 55.4229C565.932 55.6149 565.778 57.8212 565.471 62.0418L550.4 61.8618C549.888 61.8557 549.631 61.9486 549.629 62.1406C549.628 62.2046 549.754 62.3981 550.006 62.7212L559.088 73.9664ZM562.154 58.4499C562.303 56.6596 562.379 55.6364 562.382 55.3805C562.458 49.0449 560.314 43.7069 555.949 39.3665C551.65 34.9628 546.364 32.7235 540.092 32.6486C533.501 32.5699 527.938 34.7436 523.405 39.1698C518.873 43.532 516.568 48.9128 516.492 55.3124C516.415 61.7759 518.589 67.3063 523.014 71.9035C527.504 76.5014 532.948 78.8386 539.348 78.915C544.339 78.9747 549.226 77.1449 554.006 73.4257L544.734 61.9862C543.179 63.6317 541.601 64.4449 540.001 64.4258C537.953 64.4013 536.299 63.5175 535.04 61.7744C533.846 59.968 533.266 57.6249 533.3 54.7451C533.334 51.9293 534 49.6971 535.3 48.0485C536.665 46.3367 538.371 45.493 540.419 45.5174C543.49 45.5541 545.295 47.2078 545.832 50.4784L537.384 50.3775C536.855 51.8433 536.582 53.2162 536.567 54.4961C536.553 55.712 536.762 56.9306 537.196 58.1518L562.154 58.4499ZM540.905 61.0764L539.369 61.058C538.921 61.0527 538.697 61.082 538.696 61.146C538.695 61.21 538.854 61.3079 539.172 61.4397C539.492 61.5075 539.779 61.5429 540.035 61.546C540.227 61.5483 540.484 61.5194 540.804 61.4592C541.126 61.335 541.287 61.2409 541.288 61.1769C541.289 61.1129 541.161 61.0794 540.905 61.0764Z" fill="white"/>
<path d="M72.8348 136.67C113.613 136.67 146.67 103.613 146.67 62.8348C146.67 22.057 113.613 -11 72.8348 -11C32.057 -11 -1 22.057 -1 62.8348C-1 103.613 32.057 136.67 72.8348 136.67Z" fill="#FFCB4C"/>
<path d="M57.7375 80.2858C57.1077 79.782 56.6169 79.0958 56.3824 78.2706C55.8004 76.2727 56.947 74.2835 58.9449 73.8361C78.611 69.4017 91.8535 79.756 92.4138 80.199C94.0816 81.528 94.4073 83.869 93.1652 85.4325C91.923 86.9874 89.569 87.1742 87.9055 85.8538C87.4278 85.489 76.9476 77.5018 61.0557 81.085C59.8657 81.3499 58.6496 81.0155 57.7375 80.2858Z" fill="#65471B"/>
<path d="M51.6351 48.9886C56.7324 48.9886 60.8645 43.824 60.8645 37.453C60.8645 31.0821 56.7324 25.9174 51.6351 25.9174C46.5379 25.9174 42.4058 31.0821 42.4058 37.453C42.4058 43.824 46.5379 48.9886 51.6351 48.9886Z" fill="#65471B"/>
<path d="M100.523 53.6012C105.62 53.6012 109.752 48.4365 109.752 42.0656C109.752 35.6947 105.62 30.53 100.523 30.53C95.4258 30.53 91.2937 35.6947 91.2937 42.0656C91.2937 48.4365 95.4258 53.6012 100.523 53.6012Z" fill="#65471B"/>
<path d="M69.6903 141.582C69.6903 141.582 75.1845 139.797 75.8968 135.71C76.6482 131.488 73.1866 130.641 73.1866 130.641C73.1866 130.641 77.7079 129.738 78.2769 124.665C78.8111 119.883 74.5374 118.745 74.5374 118.745C74.5374 118.745 78.7503 117.008 78.9501 112.061C79.1151 107.896 74.6286 105.859 74.6286 105.859C74.6286 105.859 96.5098 100.556 98.7596 100.035C101.001 99.5134 104.493 97.3635 103.402 92.6771C102.321 87.9865 98.1732 87.8214 96.032 88.3209C93.8865 88.8204 66.7413 95.1224 57.3773 97.3027L51.1274 98.7533C48.782 99.3049 47.7179 98.2756 49.3727 96.5296C51.5791 94.2016 52.9906 91.6261 53.4814 87.3523C53.9983 82.8571 52.4738 77.3065 51.6008 75.1522C49.9764 71.1521 47.2358 67.9902 44.0696 66.9044C39.1314 65.2106 35.6221 68.2986 37.3724 73.6842C39.9957 81.7366 38.2758 88.3426 33.7545 92.3297C23.1179 101.698 18.171 108.378 21.4631 122.615C25.0593 138.142 40.4734 148.136 56.0005 144.54L69.6903 141.582Z" fill="#F19020"/>
<path d="M35.0316 16.5056C34.3193 16.1234 33.7156 15.5327 33.3334 14.7727C32.3953 12.9138 33.1597 10.7465 35.0403 9.943C53.5685 1.99055 68.4788 9.75624 69.1042 10.0907C70.9849 11.094 71.7449 13.3351 70.8024 15.1027C69.8643 16.8618 67.5884 17.4742 65.7078 16.4839C65.1736 16.2103 53.4078 10.2644 38.4411 16.688C37.3248 17.1614 36.0653 17.0572 35.0316 16.5056ZM87.7367 32.7927C87.0591 32.3671 86.4945 31.7373 86.1644 30.9512C85.3522 29.0315 86.2643 26.925 88.1971 26.2431C107.225 19.5719 121.575 28.3279 122.174 28.7057C123.977 29.835 124.585 32.1239 123.529 33.8221C122.478 35.5159 120.159 35.972 118.356 34.8557C117.835 34.543 106.512 27.8154 91.1374 33.2097C89.9821 33.6049 88.7356 33.4094 87.7367 32.7927Z" fill="#65471B"/>
<path d="M1085.99 1041.82C1072.44 1080.88 1029.78 1101.55 990.722 1087.99C951.668 1074.44 930.992 1031.78 944.551 992.722C958.109 953.668 1000.77 932.993 1039.82 946.551C1078.88 960.11 1099.55 1002.77 1085.99 1041.82Z" fill="#FFCC4D"/>
<path d="M1044.85 1071.57C1055.7 1075.33 1067.55 1069.59 1071.32 1058.74C1075.08 1047.89 1069.34 1036.04 1058.49 1032.28C1047.64 1028.51 1035.79 1034.25 1032.03 1045.1C1028.26 1055.95 1034 1067.8 1044.85 1071.57Z" fill="#FF7892"/>
<path d="M958.414 1041.56C969.264 1045.33 981.113 1039.58 984.879 1028.73C988.645 1017.88 982.903 1006.04 972.054 1002.27C961.204 998.503 949.356 1004.24 945.589 1015.09C941.823 1025.94 947.565 1037.79 958.414 1041.56Z" fill="#FF7892"/>
<path d="M1035.35 1041.85C1047.29 1046 1060.32 1039.68 1064.47 1027.75C1068.61 1015.81 1062.29 1002.78 1050.36 998.635C1038.42 994.492 1025.39 1000.81 1021.25 1012.74C1017.1 1024.68 1023.42 1037.71 1035.35 1041.85Z" fill="#F5F8FA"/>
<path d="M984.278 1024.12C996.213 1028.27 1009.25 1021.95 1013.39 1010.02C1017.53 998.081 1011.22 985.047 999.282 980.904C987.347 976.761 974.314 983.077 970.171 995.012C966.028 1006.95 972.344 1019.98 984.278 1024.12Z" fill="#F5F8FA"/>
<path d="M988.37 1012.34C993.795 1014.22 999.719 1011.35 1001.6 1005.92C1003.49 1000.5 1000.61 994.574 995.19 992.691C989.765 990.808 983.841 993.679 981.958 999.104C980.075 1004.53 982.946 1010.45 988.37 1012.34Z" fill="#292F33"/>
<path d="M1039.45 1030.07C1044.87 1031.95 1050.8 1029.08 1052.68 1023.65C1054.56 1018.23 1051.69 1012.31 1046.27 1010.42C1040.84 1008.54 1034.92 1011.41 1033.03 1016.83C1031.15 1022.26 1034.02 1028.18 1039.45 1030.07Z" fill="#292F33"/>
<path d="M1014.62 1069.88L983.189 1058.96C981.02 1058.21 979.87 1055.84 980.624 1053.67C981.378 1051.5 983.748 1050.35 985.917 1051.11L1017.35 1062.02C1019.52 1062.77 1020.67 1065.14 1019.91 1067.31C1019.16 1069.48 1016.79 1070.63 1014.62 1069.88ZM1071.97 1006.14C1070.77 1005.72 1069.79 1004.77 1069.37 1003.47C1063.8 986.04 1050.46 981.071 1049.9 980.865C1047.74 980.092 1046.61 977.718 1047.37 975.565C1048.14 973.404 1050.49 972.265 1052.65 973.016C1053.37 973.267 1070.41 979.4 1077.29 1000.94C1077.99 1003.13 1076.79 1005.47 1074.6 1006.17C1073.71 1006.45 1072.79 1006.42 1071.97 1006.14ZM977.668 973.401C976.851 973.117 976.111 972.574 975.588 971.798C974.303 969.895 974.808 967.31 976.711 966.025C995.461 953.383 1012.64 959.125 1013.36 959.376C1015.53 960.129 1016.68 962.5 1015.92 964.669C1015.17 966.834 1012.81 967.983 1010.65 967.239C1010.03 967.036 996.511 962.711 981.361 972.922C980.234 973.684 978.863 973.816 977.668 973.401Z" fill="#664500"/>
<path d="M311 1004.5C501.502 1004.05 623 896 623 896C633.5 909 704 1000.5 715.5 1080.5C727 1160.5 0 1080.5 0 1080.5V879C0 879 101.5 1005 311 1004.5Z" fill="#BA7060"/>
<path d="M3.59903 1063L0.59906 1083.5" stroke="#4A0A01" stroke-width="3" stroke-linecap="round"/>
<path d="M315 1051L314 1096" stroke="black" stroke-width="12"/>
<circle cx="270.5" cy="1078.5" r="12.5" fill="black"/>
<path d="M288 1052C298.5 1052 307.5 1044 310.5 1031.5C313.5 1019 300.581 1006.56 289.5 1005C232.5 997 188 992.5 134 968C80 943.5 42.4276 916.106 -6.5 877C2.5 924.5 49.4416 961.398 101 990C169.5 1028 211.395 1052 288 1052Z" fill="#ED193F"/>
<path d="M342 1055C327 1056.1 311 1047 309.5 1032C308 1017 317.61 1006.06 327 1004.5C375.302 996.5 438.5 990 488 970C537.5 950 571 929 616.5 893.5C653 932 553.5 986 506.5 1011.5C445.518 1044.59 376 1052.5 342 1055Z" fill="#ED193F"/>
<path d="M780 574C761.943 768.5 619 1005 320.115 1005C21.2307 1005 -100.385 807.11 -100.385 563C-100.385 318.89 5.49997 120 341 143C729.5 118.5 798.057 379.5 780 574Z" fill="#FDE6BC"/>
<path d="M353 319.5C519 324.967 781.5 394.5 781.5 394.5C686 122 529.5 38.5 344.5 38.5C159.5 38.5 110.4 68.4037 -1 134V347C-1 347 214.413 314.935 353 319.5Z" fill="#4B5FA6"/>
<path d="M800.354 399.891L802.5 400.5L799 503.5C630.773 455.161 513 433.5 373.5 426C234 418.5 148.105 424.525 -0.5 448V347.5C147.212 324.602 229.959 312.27 378 319.5C545.835 327.697 636.692 353.468 800.354 399.891Z" fill="#EC1A37"/>
<rect x="217.662" y="-52.707" width="228.048" height="23.6164" rx="11.8082" transform="rotate(43.8775 217.662 -52.707)" fill="#E61D3F" stroke="black"/>
<rect x="263.545" y="-80.6411" width="228.048" height="23.6164" rx="11.8082" transform="rotate(69.9598 263.545 -80.6411)" fill="#E61D3F" stroke="black"/>
<rect x="296.559" y="-83.9977" width="228.048" height="23.6164" rx="11.8082" transform="rotate(86.6043 296.559 -83.9977)" fill="#E61D3F" stroke="black"/>
<rect x="346.235" y="-70.0046" width="228.048" height="23.6164" rx="11.8082" transform="rotate(112.317 346.235 -70.0046)" fill="#E61D3F" stroke="black"/>
<rect x="381.831" y="-47.7447" width="228.048" height="23.6164" rx="11.8082" transform="rotate(132.522 381.831 -47.7447)" fill="#E61D3F" stroke="black"/>
<rect x="403.398" y="0.355291" width="228.048" height="23.6164" rx="11.8082" transform="rotate(158.697 403.398 0.355291)" fill="#E61D3F" stroke="black"/>
<rect x="413.548" y="47.1323" width="228.048" height="23.6164" rx="11.8082" transform="rotate(-179.996 413.548 47.1323)" fill="#E61D3F" stroke="black"/>
<rect x="191.996" y="-30.6719" width="228.048" height="23.6164" rx="11.8082" transform="rotate(26.8546 191.996 -30.6719)" fill="#E61D3F" stroke="black"/>
<path d="M289.266 651.723C244.261 716.72 168.909 736.476 104.381 697.611C41.845 653.739 30.5155 576.981 86.0015 504.001C141.488 431.021 215.616 413.087 280.938 456.649C353.55 505.074 334.812 594.867 289.266 651.723Z" fill="white"/>
<path d="M555.458 512.207C603.781 574.192 600.152 651.568 544.098 701.292C483.885 747.642 407.668 735.64 354.882 661.339C302.096 587.039 307.092 511.364 367.838 462.279C435.365 407.715 515.023 452.121 555.458 512.207Z" fill="white"/>
<ellipse cx="239.5" cy="583" rx="16.5" ry="16" fill="black"/>
<ellipse cx="396.5" cy="587" rx="16.5" ry="16" fill="black"/>
<path d="M327 518C327 518 321.5 538 320.5 558C319.5 578 324 596 324 596" stroke="black" stroke-width="3" stroke-linecap="round" stroke-linejoin="round"/>
<path d="M248.5 861.5C248.5 861.5 282 876.5 318.5 876.5C376.5 876.5 386 866.5 386 866.5" stroke="black" stroke-width="7" stroke-linecap="round"/>
<path d="M582.852 1012.25C582.435 1011.22 581.268 1010.73 580.245 1011.15C579.222 1011.56 578.731 1012.73 579.148 1013.75L582.852 1012.25ZM592.138 1045.63L590.197 1046.11L592.138 1045.63ZM581 1013C579.148 1013.75 579.148 1013.75 579.148 1013.75C579.148 1013.75 579.148 1013.75 579.148 1013.76C579.148 1013.76 579.149 1013.76 579.149 1013.76C579.15 1013.76 579.151 1013.76 579.153 1013.77C579.156 1013.78 579.162 1013.79 579.169 1013.81C579.184 1013.84 579.205 1013.9 579.234 1013.97C579.291 1014.11 579.375 1014.32 579.484 1014.59C579.702 1015.14 580.018 1015.93 580.407 1016.93C581.186 1018.92 582.259 1021.72 583.437 1024.94C585.797 1031.39 588.551 1039.47 590.197 1046.11L594.079 1045.15C592.38 1038.29 589.565 1030.05 587.193 1023.56C586.004 1020.31 584.92 1017.49 584.133 1015.47C583.739 1014.46 583.42 1013.66 583.199 1013.11C583.088 1012.83 583.002 1012.61 582.943 1012.47C582.914 1012.4 582.891 1012.34 582.876 1012.3C582.868 1012.28 582.862 1012.27 582.858 1012.26C582.856 1012.26 582.855 1012.25 582.854 1012.25C582.853 1012.25 582.853 1012.25 582.853 1012.25C582.853 1012.25 582.852 1012.25 582.852 1012.25C582.852 1012.25 582.852 1012.25 581 1013ZM590.197 1046.11C591.772 1052.47 593.227 1060.98 594.291 1067.95C594.822 1071.43 595.253 1074.51 595.552 1076.71C595.701 1077.82 595.817 1078.7 595.896 1079.31C595.935 1079.61 595.965 1079.85 595.985 1080.01C595.995 1080.09 596.003 1080.15 596.008 1080.19C596.01 1080.21 596.012 1080.22 596.013 1080.23C596.014 1080.24 596.015 1080.24 596.015 1080.24C596.015 1080.24 596.015 1080.25 596.015 1080.25C596.015 1080.25 596.015 1080.25 596.015 1080.25C596.015 1080.25 596.015 1080.25 598 1080C599.985 1079.75 599.985 1079.75 599.985 1079.75C599.985 1079.75 599.985 1079.75 599.985 1079.75C599.985 1079.75 599.984 1079.75 599.984 1079.75C599.984 1079.75 599.983 1079.74 599.983 1079.74C599.981 1079.73 599.979 1079.71 599.977 1079.69C599.972 1079.65 599.964 1079.59 599.953 1079.5C599.933 1079.34 599.903 1079.1 599.863 1078.8C599.783 1078.18 599.666 1077.29 599.516 1076.18C599.215 1073.95 598.78 1070.85 598.245 1067.35C597.178 1060.36 595.701 1051.69 594.079 1045.15L590.197 1046.11Z" fill="black"/>
</g>
<defs>
<linearGradient id="paint0_linear_11_13" x1="0" y1="540" x2="1080" y2="540" gradientUnits="userSpaceOnUse">
<stop stop-color="#C84E89"/>
<stop offset="1" stop-color="#F15F79"/>
</linearGradient>
<linearGradient id="paint1_linear_11_13" x1="0" y1="541.5" x2="1080" y2="541.5" gradientUnits="userSpaceOnUse">
<stop stop-color="#C84E89"/>
<stop offset="1" stop-color="#F15F79"/>
</linearGradient>
<clipPath id="clip0_11_13">
<rect width="1080" height="1080" fill="white"/>
</clipPath>
</defs>
</svg>
